<svg width="67" height="66" viewBox="0 0 67 66" fill="none" xmlns="http://www.w3.org/2000/svg">
<path d="M19.75 44H39V49.5H19.75V44ZM19.75 33H47.25V38.5H19.75V33ZM19.75 22H47.25V27.5H19.75V22ZM52.75 11H41.255C40.1 7.81 37.075 5.5 33.5 5.5C29.925 5.5 26.9 7.81 25.745 11H14.25C13.865 11 13.5075 11.0275 13.15 11.11C12.0775 11.33 11.115 11.88 10.3725 12.6225C9.8775 13.1175 9.465 13.7225 9.19 14.3825C8.915 15.015 8.75 15.73 8.75 16.5V55C8.75 55.7425 8.915 56.485 9.19 57.145C9.465 57.805 9.8775 58.3825 10.3725 58.905C11.115 59.6475 12.0775 60.1975 13.15 60.4175C13.5075 60.4725 13.865 60.5 14.25 60.5H52.75C55.775 60.5 58.25 58.025 58.25 55V16.5C58.25 13.475 55.775 11 52.75 11ZM33.5 10.3125C34.6275 10.3125 35.5625 11.2475 35.5625 12.375C35.5625 13.5025 34.6275 14.4375 33.5 14.4375C32.3725 14.4375 31.4375 13.5025 31.4375 12.375C31.4375 11.2475 32.3725 10.3125 33.5 10.3125ZM52.75 55H14.25V16.5H52.75V55Z" fill="#6B6A6E"/>
</svg>
