<svg width="21" height="20" viewBox="0 0 21 20" fill="none" xmlns="http://www.w3.org/2000/svg">
<path fill-rule="evenodd" clip-rule="evenodd" d="M6.60822 15.3999C5.54949 15.3999 4.69288 16.2661 4.69288 17.3249C4.69288 18.3836 5.54949 19.2498 6.60822 19.2498C7.66695 19.2498 8.53319 18.3836 8.53319 17.3249C8.53319 16.2661 7.66695 15.3999 6.60822 15.3999ZM0.833008 0.962484C0.833008 1.49185 1.26613 1.92497 1.79549 1.92497H2.75797L6.22292 9.23022L4.92356 11.5787C4.22095 12.8684 5.14493 14.4373 6.60791 14.4373H17.1952C17.7246 14.4373 18.1577 14.0041 18.1577 13.4748C18.1577 12.9454 17.7246 12.5123 17.1952 12.5123H6.60791L7.66664 10.5873H14.8371C15.559 10.5873 16.1942 10.1927 16.5215 9.59596L19.9672 3.34944C20.3233 2.7142 19.8613 1.92497 19.1298 1.92497H4.88506L4.2402 0.548616C4.0862 0.211746 3.73971 0 3.37396 0H1.79549C1.26613 0 0.833008 0.433118 0.833008 0.962484ZM16.2332 15.3999C15.1745 15.3999 14.3179 16.2661 14.3179 17.3249C14.3179 18.3836 15.1745 19.2498 16.2332 19.2498C17.292 19.2498 18.1582 18.3836 18.1582 17.3249C18.1582 16.2661 17.292 15.3999 16.2332 15.3999Z" fill="#FF9A02"/>
</svg>
