<?xml version="1.0" encoding="utf-8"?>
<!-- Generator: Adobe Illustrator 20.0.0, SVG Export Plug-In . SVG Version: 6.00 Build 0)  -->
<svg version="1.1" xmlns="http://www.w3.org/2000/svg" xmlns:xlink="http://www.w3.org/1999/xlink" x="0px" y="0px"
	 viewBox="0 0 463.4 379.9" style="enable-background:new 0 0 463.4 379.9;" xml:space="preserve">
<style type="text/css">
	.st0{fill:#FFFFFF;}
</style>
<g id="BG">
</g>
<g id="BG_dark">
</g>
<g id="bullets">
</g>
<g id="cart">
	<g id="Wagentje">
		<g>
			<path class="st0" d="M327.8,319.5c-16.7,0-30.2,13.6-30.2,30.2s13.6,30.2,30.2,30.2s30.2-13.6,30.2-30.2S344.4,319.5,327.8,319.5
				z"/>
			<path class="st0" d="M173.8,319.5c-16.7,0-30.2,13.6-30.2,30.2s13.6,30.2,30.2,30.2s30.2-13.6,30.2-30.2S190.5,319.5,173.8,319.5
				z"/>
		</g>
		<polygon class="st0" points="463.4,59.4 416.3,59.4 370.2,185 145.6,185 83.1,0 0,0 0,38 48.6,38 139.1,302 354,302 354,267
			173.6,267 161.3,231 401.6,231 		"/>
	</g>
</g>
</svg>
