<svg width="22" height="27" viewBox="0 0 22 27" fill="none" xmlns="http://www.w3.org/2000/svg">
<path d="M17.6 21.6C18.1835 21.6 18.7431 21.8845 19.1556 22.3908C19.5682 22.8972 19.8 23.5839 19.8 24.3C19.8 25.0161 19.5682 25.7028 19.1556 26.2092C18.7431 26.7155 18.1835 27 17.6 27C17.0165 27 16.4569 26.7155 16.0444 26.2092C15.6318 25.7028 15.4 25.0161 15.4 24.3C15.4 22.8015 16.379 21.6 17.6 21.6ZM0 0H3.597L4.631 2.7H20.9C21.1917 2.7 21.4715 2.84223 21.6778 3.09541C21.8841 3.34858 22 3.69196 22 4.05C22 4.2795 21.945 4.509 21.868 4.725L17.93 13.4595C17.556 14.283 16.83 14.85 16.005 14.85H7.81L6.82 17.0505L6.787 17.2125C6.787 17.302 6.81597 17.3879 6.86755 17.4511C6.91912 17.5144 6.98907 17.55 7.062 17.55H19.8V20.25H6.6C6.01652 20.25 5.45694 19.9655 5.04436 19.4592C4.63178 18.9528 4.4 18.2661 4.4 17.55C4.4 17.0775 4.499 16.632 4.664 16.254L6.16 12.9465L2.2 2.7H0V0ZM6.6 21.6C7.18348 21.6 7.74305 21.8845 8.15563 22.3908C8.56821 22.8972 8.8 23.5839 8.8 24.3C8.8 25.0161 8.56821 25.7028 8.15563 26.2092C7.74305 26.7155 7.18348 27 6.6 27C6.01652 27 5.45694 26.7155 5.04436 26.2092C4.63178 25.7028 4.4 25.0161 4.4 24.3C4.4 22.8015 5.379 21.6 6.6 21.6ZM16.5 12.15L19.558 5.4H5.654L8.25 12.15H16.5Z" fill="#FF9A02"/>
</svg>
