<svg width="86" height="86" viewBox="0 0 86 86" fill="none" xmlns="http://www.w3.org/2000/svg">
<path d="M33.6827 50.1668L42.9993 40.8501L52.316 50.1668L57.3327 45.1501L48.016 35.8334L57.3327 26.5168L52.316 21.5001L42.9993 30.8168L33.6827 21.5001L28.666 26.5168L37.9827 35.8334L28.666 45.1501L33.6827 50.1668ZM7.16602 78.8334V14.3334C7.16602 12.3626 7.86835 10.6748 9.27302 9.27017C10.6777 7.8655 12.3642 7.16437 14.3327 7.16675H71.666C73.6368 7.16675 75.3246 7.86909 76.7293 9.27375C78.1339 10.6784 78.8351 12.365 78.8327 14.3334V57.3334C78.8327 59.3043 78.1303 60.992 76.7257 62.3967C75.321 63.8013 73.6345 64.5025 71.666 64.5001H21.4993L7.16602 78.8334ZM14.3327 57.3334H71.666V14.3334H14.3327V57.3334Z" fill="#002A42"/>
</svg>
