<svg width="14" height="15" viewBox="0 0 14 15" fill="none" xmlns="http://www.w3.org/2000/svg">
<path d="M7.19102 9.74544C7.33986 9.72726 7.47594 9.69377 7.59927 9.64498C7.798 9.56506 7.95353 9.4549 8.06585 9.31449C8.17818 9.17192 8.23542 9.0056 8.23758 8.81551C8.23542 8.6427 8.18466 8.50013 8.08529 8.38781C7.98593 8.27332 7.8466 8.17828 7.66732 8.10268C7.52742 8.04126 7.36865 7.98523 7.19102 7.93459V9.74544Z" fill="#7D8FA9"/>
<path d="M6.65963 6.70254V4.9971C6.52573 5.0152 6.40476 5.04703 6.29674 5.09259C6.11745 5.16819 5.98028 5.27079 5.88524 5.4004C5.79019 5.53001 5.74159 5.67797 5.73943 5.8443C5.73943 5.98254 5.77075 6.10243 5.8334 6.20395C5.8982 6.30548 5.98568 6.39188 6.09585 6.46317C6.20601 6.53229 6.32806 6.59061 6.46198 6.63813C6.52761 6.66142 6.59349 6.68289 6.65963 6.70254Z" fill="#7D8FA9"/>
<path fill-rule="evenodd" clip-rule="evenodd" d="M6.91236 13.2027C10.0618 13.2027 12.615 10.6495 12.615 7.50001C12.615 4.35053 10.0618 1.79736 6.91236 1.79736C3.76288 1.79736 1.20972 4.35053 1.20972 7.50001C1.20972 10.6495 3.76288 13.2027 6.91236 13.2027ZM6.65963 10.7815V11.5178H7.19102V10.7814C7.60782 10.7579 7.97071 10.6782 8.2797 10.5425C8.65556 10.3762 8.94285 10.1461 9.14158 9.85235C9.34031 9.55642 9.43967 9.21404 9.43967 8.82523C9.43967 8.53794 9.38567 8.28736 9.27767 8.07352C9.16966 7.85967 9.02277 7.67714 8.83701 7.52593C8.6534 7.37473 8.44495 7.24944 8.21166 7.15008C7.98053 7.05071 7.73968 6.97187 7.48911 6.91355L7.19102 6.83902V4.99333C7.43552 5.02246 7.64181 5.09659 7.80988 5.21571C8.03453 5.3734 8.16198 5.59373 8.19222 5.8767H9.34895C9.34247 5.503 9.2377 5.17251 9.03466 4.88522C8.83161 4.59576 8.55187 4.37004 8.19546 4.20803C7.90095 4.07155 7.56614 3.9918 7.19102 3.96878V3.22303H6.65963V3.97358C6.31353 4.00166 5.99708 4.07981 5.71027 4.20803C5.34306 4.37004 5.05252 4.59792 4.83867 4.8917C4.62698 5.18547 4.52114 5.52784 4.52114 5.91882C4.52114 6.39404 4.67883 6.7753 4.9942 7.06259C5.31173 7.34772 5.74375 7.56049 6.29026 7.7009L6.65963 7.79602V9.74792C6.50696 9.73077 6.36439 9.69754 6.23193 9.64822C6.03105 9.57262 5.86796 9.45814 5.74267 9.30477C5.61739 9.1514 5.5461 8.95915 5.52882 8.72802H4.34617C4.36345 9.16868 4.47794 9.54238 4.68963 9.84911C4.90348 10.1558 5.19941 10.3891 5.57743 10.549C5.89167 10.6811 6.25241 10.7586 6.65963 10.7815Z" fill="#7D8FA9"/>
</svg>
