<svg width="26" height="27" viewBox="0 0 26 27" fill="none" xmlns="http://www.w3.org/2000/svg">
<path d="M25.2047 1.22892C25.1293 1.04108 24.9844 0.889556 24.8001 0.80586C24.6158 0.722165 24.4063 0.712744 24.2152 0.779558C24.0242 0.846373 23.8662 0.984277 23.7742 1.16458C23.6823 1.34489 23.6633 1.55372 23.7214 1.74762C24.9291 5.21862 22.5319 7.81082 20.7041 9.19922L19.9657 8.14102C19.7174 7.78612 19.1623 7.49102 18.7307 7.48582L14.5863 7.50402C14.08 7.51931 13.5873 7.67112 13.1602 7.94342L0.948006 16.5065C0.663949 16.7064 0.470671 17.0107 0.410489 17.3528C0.350307 17.6949 0.428126 18.0469 0.626906 18.3317L6.17661 26.2721C6.59261 26.8636 7.25691 26.7921 7.84971 26.3787L20.0619 17.8143C20.4129 17.566 20.8185 17.0304 20.9615 16.6209L22.2589 12.5324C22.4019 12.1242 22.3148 11.5015 22.0665 11.1466L21.6167 10.5018C24.0711 8.62072 26.6191 5.29662 25.2047 1.22892ZM19.5224 13.3943C19.2974 13.5518 19.0436 13.6634 18.7755 13.7228C18.5074 13.7821 18.2302 13.7881 17.9597 13.7403C17.6893 13.6925 17.431 13.5918 17.1994 13.4441C16.9679 13.2965 16.7678 13.1046 16.6104 12.8795C16.2918 12.4241 16.1669 11.8608 16.2632 11.3134C16.3595 10.766 16.669 10.2791 17.1239 9.95972C17.4805 9.70988 17.9063 9.5777 18.3416 9.58166C18.777 9.58563 19.2003 9.72553 19.5523 9.98182C19.1987 10.195 18.9556 10.3198 18.9101 10.3393C18.749 10.4162 18.6187 10.5454 18.5406 10.706C18.4626 10.8666 18.4414 11.0489 18.4805 11.2231C18.5196 11.3973 18.6168 11.553 18.756 11.6648C18.8952 11.7765 19.0683 11.8377 19.2468 11.8382C19.3586 11.8382 19.473 11.8122 19.5809 11.7615C19.8331 11.6419 20.1035 11.5002 20.3856 11.3325C20.4505 11.7226 20.4039 12.1231 20.2512 12.4878C20.0985 12.8526 19.8459 13.1668 19.5224 13.3943Z" fill="white"/>
</svg>
