<svg width="20" height="20" viewBox="0 0 20 20" fill="none" xmlns="http://www.w3.org/2000/svg">
<g clip-path="url(#clip0_1_3563)">
<path d="M13.9944 11.3334C14.1539 10.9071 14.2348 10.4553 14.2332 10.0001C14.2332 8.98931 13.8317 8.01993 13.117 7.30521C12.4023 6.59049 11.4329 6.18896 10.4221 6.18896C9.97252 6.18949 9.52661 6.27039 9.10547 6.42785L9.99991 7.35008C10.1359 7.32832 10.2733 7.31718 10.411 7.31674C11.1257 7.31525 11.812 7.5966 12.3199 8.09935C12.8279 8.6021 13.1163 9.28541 13.1221 10.0001C13.1217 10.1378 13.1105 10.2752 13.0888 10.4112L13.9944 11.3334Z" fill="#9F9F9F"/>
<path d="M19.0501 9.73891C17.1779 6.27779 13.8945 4.18335 10.2612 4.18335C9.27196 4.18567 8.28935 4.34506 7.3501 4.65557L8.24454 5.55557C8.90335 5.38531 9.58076 5.2976 10.2612 5.29446C13.389 5.29446 16.2334 7.0389 17.9279 9.97779C17.3063 11.0681 16.4823 12.0298 15.5001 12.8111L16.289 13.6C17.4257 12.683 18.3697 11.5501 19.0668 10.2667L19.2112 10L19.0501 9.73891Z" fill="#9F9F9F"/>
<path d="M2.7056 3.21108L5.18338 5.68886C3.61722 6.69725 2.33721 8.09206 1.46671 9.73886L1.32227 9.99997L1.46671 10.2666C3.33893 13.7277 6.62226 15.8222 10.2556 15.8222C11.6737 15.8219 13.0735 15.5009 14.35 14.8833L17.1278 17.6611L18.1 16.8277L3.6556 2.3833L2.7056 3.21108ZM8.12227 8.62774L11.8167 12.3222C11.3993 12.5806 10.9187 12.719 10.4278 12.7222C10.0711 12.7222 9.71793 12.6517 9.38859 12.5147C9.05924 12.3777 8.76024 12.1769 8.50879 11.9239C8.25734 11.6709 8.05839 11.3706 7.92341 11.0405C7.78843 10.7103 7.72007 10.3567 7.72227 9.99997C7.72853 9.51472 7.86681 9.04035 8.12227 8.62774ZM7.31671 7.82219C6.79695 8.55519 6.55334 9.44846 6.629 10.3438C6.70466 11.2392 7.09471 12.079 7.7301 12.7144C8.36549 13.3497 9.20522 13.7398 10.1006 13.8155C10.996 13.8911 11.8893 13.6475 12.6223 13.1277L13.5112 14.0166C12.4821 14.4565 11.3747 14.6833 10.2556 14.6833C7.12782 14.6833 4.28338 12.9389 2.58893 9.99997C3.4021 8.56009 4.57322 7.35452 5.98893 6.49997L7.31671 7.82219Z" fill="#9F9F9F"/>
</g>
<defs>
<clipPath id="clip0_1_3563">
<rect width="20" height="20" fill="white"/>
</clipPath>
</defs>
</svg>
