<svg width="86" height="86" viewBox="0 0 86 86" fill="none" xmlns="http://www.w3.org/2000/svg">
<path d="M36.5503 19.3413C36.5503 17.6307 37.2299 15.9901 38.4395 14.7805C39.6491 13.5709 41.2897 12.8913 43.0003 12.8913C44.711 12.8913 46.3516 13.5709 47.5612 14.7805C48.7708 15.9901 49.4503 17.6307 49.4503 19.3413C49.4503 21.052 48.7708 22.6925 47.5612 23.9021C46.3516 25.1118 44.711 25.7913 43.0003 25.7913C41.2897 25.7913 39.6491 25.1118 38.4395 23.9021C37.2299 22.6925 36.5503 21.052 36.5503 19.3413ZM43.0003 8.59131C41.3744 8.59154 39.7697 8.96058 38.307 9.67066C36.8444 10.3807 35.5618 11.4134 34.5559 12.6908C33.5501 13.9682 32.8471 15.4572 32.4998 17.0456C32.1526 18.634 32.1702 20.2805 32.5513 21.8611L23.5256 17.8449C21.7014 17.0354 19.6314 16.9788 17.7657 17.6874C15.9 18.396 14.3894 19.8125 13.5625 21.6289C11.8425 25.4215 13.5281 29.872 17.3336 31.5619L30.1003 37.2465V47.0806L22.0292 67.0541C21.3052 68.8997 21.3388 70.9565 22.1227 72.7775C22.9066 74.5986 24.3775 76.0366 26.2157 76.7793C28.0539 77.5219 30.1109 77.5091 31.9398 76.7437C33.7686 75.9783 35.2215 74.522 35.9827 72.6914L36.3525 71.7755C35.3914 69.5637 34.7765 67.2171 34.5293 64.8181L31.9966 71.0832C31.847 71.4882 31.6175 71.8589 31.3219 72.1736C31.0263 72.4882 30.6705 72.7403 30.2757 72.9149C29.8808 73.0894 29.455 73.183 29.0233 73.1899C28.5916 73.1968 28.163 73.117 27.7627 72.9552C27.3625 72.7933 26.9988 72.5528 26.6933 72.2478C26.3877 71.9428 26.1465 71.5796 25.9839 71.1796C25.8214 70.7797 25.7408 70.3512 25.7469 69.9195C25.753 69.4878 25.8458 69.0618 26.0196 68.6666L34.0864 48.6888C34.2926 48.1792 34.3992 47.6347 34.4003 47.0849V37.2465C34.4008 36.415 34.1602 35.6012 33.7076 34.9037C33.2551 34.2061 32.6099 33.6547 31.8504 33.3163L19.0837 27.636C18.6992 27.4658 18.3523 27.221 18.063 26.9157C17.7738 26.6104 17.5481 26.2507 17.3989 25.8576C17.2497 25.4644 17.18 25.0455 17.1939 24.6252C17.2078 24.2049 17.305 23.7916 17.4798 23.4091C17.8374 22.6258 18.4893 22.0149 19.2943 21.7091C20.0992 21.4032 20.9923 21.4269 21.7798 21.7751L38.6272 29.2743C40.0037 29.8873 41.4936 30.204 43.0003 30.204C44.5071 30.204 45.997 29.8873 47.3734 29.2743L64.2208 21.7751C65.0084 21.4269 65.9014 21.4032 66.7064 21.7091C67.5113 22.0149 68.1633 22.6258 68.5208 23.4091C68.6957 23.7916 68.7928 24.2049 68.8067 24.6252C68.8206 25.0455 68.751 25.4644 68.6018 25.8576C68.4526 26.2507 68.2268 26.6104 67.9376 26.9157C67.6484 27.221 67.3015 27.4658 66.9169 27.636L54.1502 33.3163C53.3907 33.6547 52.7456 34.2061 52.293 34.9037C51.8405 35.6012 51.5999 36.415 51.6003 37.2465V39.59C53.0059 39.1921 54.4454 38.9258 55.9003 38.7945V37.2465L68.6627 31.5619C69.5653 31.1606 70.3794 30.5845 71.0582 29.8669C71.7369 29.1493 72.2669 28.3044 72.6175 27.381C72.9681 26.4576 73.1324 25.4738 73.1008 24.4866C73.0693 23.4993 72.8426 22.5281 72.4338 21.6289C71.6069 19.8125 70.0964 18.396 68.2307 17.6874C66.365 16.9788 64.2949 17.0354 62.4707 17.8449L53.4536 21.8611C53.8347 20.2805 53.8524 18.634 53.5051 17.0456C53.1579 15.4572 52.4549 13.9682 51.449 12.6908C50.4431 11.4134 49.1606 10.3807 47.6979 9.67066C46.2352 8.96058 44.6306 8.59154 43.0046 8.59131H43.0003ZM77.4003 62.3499C77.4003 67.4818 75.3617 72.4036 71.7328 76.0324C68.104 79.6613 63.1823 81.6999 58.0503 81.6999C52.9184 81.6999 47.9966 79.6613 44.3678 76.0324C40.739 72.4036 38.7003 67.4818 38.7003 62.3499C38.7003 57.218 40.739 52.2962 44.3678 48.6674C47.9966 45.0386 52.9184 42.9999 58.0503 42.9999C63.1823 42.9999 68.104 45.0386 71.7328 48.6674C75.3617 52.2962 77.4003 57.218 77.4003 62.3499ZM68.1725 54.3777C67.9728 54.1775 67.7356 54.0186 67.4743 53.9102C67.2131 53.8019 66.9331 53.7461 66.6503 53.7461C66.3675 53.7461 66.0875 53.8019 65.8263 53.9102C65.5651 54.0186 65.3278 54.1775 65.1281 54.3777L53.7503 65.7598L50.9725 62.9777C50.5688 62.574 50.0213 62.3472 49.4503 62.3472C48.8794 62.3472 48.3318 62.574 47.9281 62.9777C47.5244 63.3814 47.2976 63.929 47.2976 64.4999C47.2976 65.0708 47.5244 65.6184 47.9281 66.0221L52.2281 70.3221C52.4278 70.5223 52.6651 70.6812 52.9263 70.7896C53.1875 70.898 53.4675 70.9538 53.7503 70.9538C54.0331 70.9538 54.3131 70.898 54.5744 70.7896C54.8356 70.6812 55.0728 70.5223 55.2725 70.3221L68.1725 57.4221C68.3727 57.2224 68.5316 56.9851 68.64 56.7239C68.7484 56.4627 68.8042 56.1827 68.8042 55.8999C68.8042 55.6171 68.7484 55.3371 68.64 55.0759C68.5316 54.8147 68.3727 54.5774 68.1725 54.3777Z" fill="#FF9A02"/>
</svg>
