<svg width="86" height="86" viewBox="0 0 86 86" fill="none" xmlns="http://www.w3.org/2000/svg">
<circle cx="43" cy="43" r="43" fill="#FF9A02"/>
<path fill-rule="evenodd" clip-rule="evenodd" d="M56.4368 34.5068H51.9577V30.9469C51.9577 28.9889 50.3452 27.387 48.3743 27.387H26.8743C24.9035 27.387 23.291 28.9889 23.291 30.9469V46.9666C23.291 48.9246 24.9035 50.5265 26.8743 50.5265C26.8743 53.4813 29.2752 55.8664 32.2493 55.8664C35.2235 55.8664 37.6243 53.4813 37.6243 50.5265H48.3743C48.3743 53.4813 50.7752 55.8664 53.7493 55.8664C56.7235 55.8664 59.1243 53.4813 59.1243 50.5265H60.916C61.9014 50.5265 62.7077 49.7256 62.7077 48.7466V42.8193C62.7077 42.0539 62.4568 41.3063 61.991 40.6833L57.8702 35.2188C57.5298 34.7738 56.9923 34.5068 56.4368 34.5068ZM32.2497 52.305C31.2643 52.305 30.458 51.5044 30.458 50.5259C30.458 49.5474 31.2643 48.7468 32.2497 48.7468C33.2351 48.7468 34.0413 49.5474 34.0413 50.5259C34.0413 51.5044 33.2351 52.305 32.2497 52.305ZM56.4372 37.1759L59.9488 41.6258H51.958V37.1759H56.4372ZM53.7497 52.305C52.7643 52.305 51.958 51.5044 51.958 50.5259C51.958 49.5474 52.7643 48.7468 53.7497 48.7468C54.7351 48.7468 55.5413 49.5474 55.5413 50.5259C55.5413 51.5044 54.7351 52.305 53.7497 52.305Z" fill="white"/>
</svg>
