<svg width="88" height="81" viewBox="0 0 88 81" fill="none" xmlns="http://www.w3.org/2000/svg">
<path d="M33 64L33 13C33 10.6 35 10 36 10C50.3333 10 79.6 10 82 10C84.4 10 85 12 85 13V69C85 71.4 83 72 82 72H56.5" stroke="#002A42" stroke-width="5"/>
<path d="M23 67C11.4231 67 7.36154 67 5.42308 67C3.48462 67 3 64.9355 3 63.9032C3 45.6667 3 8.57419 3 6.09677C3 3.61935 4.61538 3 5.42308 3C17 3 40.6385 3 42.5769 3C44.5154 3 45 5.06452 45 6.09677V12" stroke="#002A42" stroke-width="5"/>
<path d="M56 65.629V77.371C56 77.8742 54.7692 78 54.1538 78H25.8462C24.3692 78 24 77.5806 24 77.371V65.629C24 65.1258 25.2308 65 25.8462 65H54.1538C55.6308 65 56 65.4194 56 65.629Z" stroke="#002A42" stroke-width="5"/>
<path d="M77 56L41 56" stroke="#002A42" stroke-width="5"/>
<path d="M71 46L41 46" stroke="#002A42" stroke-width="5"/>
<path d="M66 36H41" stroke="#002A42" stroke-width="5"/>
<path d="M74 26H41" stroke="#002A42" stroke-width="5"/>
<path d="M33 46L9 46" stroke="#002A42" stroke-width="5"/>
<path d="M31 36L15 36" stroke="#002A42" stroke-width="5"/>
<path d="M27 26H9" stroke="#002A42" stroke-width="5"/>
<path d="M20 16H9" stroke="#002A42" stroke-width="5"/>
<path d="M32 16H25" stroke="#002A42" stroke-width="5"/>
</svg>
