<svg width="26" height="26" viewBox="0 0 26 26" fill="none" xmlns="http://www.w3.org/2000/svg">
<path d="M12.9121 0.626587C6.10683 0.626587 0.570312 6.16311 0.570312 12.9684V18.0816C0.570312 19.3454 1.67737 20.3734 3.03867 20.3734H4.27284C4.60017 20.3734 4.91409 20.2434 5.14554 20.0119C5.37699 19.7805 5.50702 19.4666 5.50702 19.1392V12.7919C5.50702 12.4645 5.37699 12.1506 5.14554 11.9192C4.91409 11.6877 4.60017 11.5577 4.27284 11.5577H3.15221C3.83841 6.78143 7.94823 3.09494 12.9121 3.09494C17.8759 3.09494 21.9858 6.78143 22.672 11.5577H21.5513C21.224 11.5577 20.9101 11.6877 20.6786 11.9192C20.4472 12.1506 20.3172 12.4645 20.3172 12.7919V20.3734C20.3172 21.7347 19.2101 22.8418 17.8488 22.8418H15.3804V21.6076H10.4437V25.3101H17.8488C20.5714 25.3101 22.7855 23.096 22.7855 20.3734C24.1468 20.3734 25.2539 19.3454 25.2539 18.0816V12.9684C25.2539 6.16311 19.7173 0.626587 12.9121 0.626587Z" fill="white"/>
</svg>
