<svg width="14" height="14" viewBox="0 0 14 14" fill="none" xmlns="http://www.w3.org/2000/svg">
<path d="M7.07 11.585L7 11.655L6.923 11.585C3.598 8.56795 1.4 6.57295 1.4 4.54995C1.4 3.14995 2.45 2.09995 3.85 2.09995C4.928 2.09995 5.978 2.79995 6.349 3.75195H7.651C8.022 2.79995 9.072 2.09995 10.15 2.09995C11.55 2.09995 12.6 3.14995 12.6 4.54995C12.6 6.57295 10.402 8.56795 7.07 11.585ZM10.15 0.699951C8.932 0.699951 7.763 1.26695 7 2.15595C6.237 1.26695 5.068 0.699951 3.85 0.699951C1.694 0.699951 0 2.38695 0 4.54995C0 7.18895 2.38 9.35195 5.985 12.621L7 13.545L8.015 12.621C11.62 9.35195 14 7.18895 14 4.54995C14 2.38695 12.306 0.699951 10.15 0.699951Z" fill="#FF9A02"/>
</svg>
