<svg width="54" height="66" viewBox="0 0 54 66" fill="none" xmlns="http://www.w3.org/2000/svg">
<path d="M27 0.916748L0.75 12.5834V30.0834C0.75 46.2709 11.95 61.4084 27 65.0834C42.05 61.4084 53.25 46.2709 53.25 30.0834V12.5834L27 0.916748ZM47.4167 30.0834C47.4167 35.4793 45.9292 40.7292 43.3917 45.2793L39.1625 41.0501C42.925 35.3918 42.2833 27.6918 37.2958 22.7043C31.6083 17.0168 22.3625 17.0168 16.675 22.7043C10.9875 28.3918 10.9875 37.6376 16.675 43.3251C21.6625 48.3126 29.3625 48.9251 35.0208 45.1918L40.0375 50.2084C36.5667 54.3501 32.075 57.5293 27 59.0751C15.275 55.4293 6.58333 43.2668 6.58333 30.0834V16.3751L27 7.30425L47.4167 16.3751V30.0834ZM27 41.7501C22.1583 41.7501 18.25 37.8418 18.25 33.0001C18.25 28.1584 22.1583 24.2501 27 24.2501C31.8417 24.2501 35.75 28.1584 35.75 33.0001C35.75 37.8418 31.8417 41.7501 27 41.7501Z" fill="#666666"/>
</svg>
