<svg width="18" height="19" viewBox="0 0 18 19" fill="none" xmlns="http://www.w3.org/2000/svg">
<path d="M4.59772 6.406V16.6284H1.86732V6.406H4.59772ZM1.69727 3.74175C1.69727 3.34494 1.83583 3.01742 2.11297 2.75918C2.3901 2.50095 2.76171 2.37183 3.2278 2.37183C3.68759 2.37183 4.05605 2.50095 4.33318 2.75918C4.61661 3.01742 4.75833 3.34494 4.75833 3.74175C4.75833 4.13855 4.61661 4.46607 4.33318 4.72431C4.05605 4.98255 3.68759 5.11167 3.2278 5.11167C2.76171 5.11167 2.3901 4.98255 2.11297 4.72431C1.83583 4.46607 1.69727 4.13855 1.69727 3.74175Z" fill="#7D8FA9"/>
<path d="M9.51054 8.58843V16.6284H6.78959V6.406H9.34048L9.51054 8.58843ZM9.11373 11.1582H8.37681C8.37681 10.4024 8.47443 9.72216 8.66969 9.1175C8.86494 8.50655 9.13892 7.98692 9.49164 7.55863C9.84435 7.12403 10.2632 6.79336 10.7482 6.56662C11.2395 6.33357 11.7874 6.21705 12.3921 6.21705C12.8708 6.21705 13.3085 6.28633 13.7053 6.4249C14.1021 6.56347 14.4422 6.78391 14.7257 7.08624C15.0154 7.38857 15.2359 7.78852 15.387 8.2861C15.5445 8.78368 15.6232 9.39149 15.6232 10.1095V16.6284H12.8834V10.1001C12.8834 9.64657 12.8204 9.29386 12.6944 9.04192C12.5684 8.78998 12.3826 8.61362 12.137 8.51285C11.8977 8.40577 11.6016 8.35224 11.2489 8.35224C10.8836 8.35224 10.5655 8.42467 10.2947 8.56953C10.0302 8.7144 9.80971 8.91595 9.63336 9.17419C9.4633 9.42613 9.33418 9.72216 9.246 10.0623C9.15782 10.4024 9.11373 10.7677 9.11373 11.1582Z" fill="#7D8FA9"/>
</svg>
