<svg width="18" height="19" viewBox="0 0 18 19" fill="none" xmlns="http://www.w3.org/2000/svg">
<path fill-rule="evenodd" clip-rule="evenodd" d="M12.2953 3.79749H6.59266C5.01792 3.79749 3.74134 5.07407 3.74134 6.64881V12.3515C3.74134 13.9262 5.01792 15.2028 6.59266 15.2028H12.2953C13.87 15.2028 15.1466 13.9262 15.1466 12.3515V6.64881C15.1466 5.07407 13.87 3.79749 12.2953 3.79749ZM6.59266 2.37183C4.23055 2.37183 2.31567 4.2867 2.31567 6.64881V12.3515C2.31567 14.7136 4.23055 16.6284 6.59266 16.6284H12.2953C14.6574 16.6284 16.5723 14.7136 16.5723 12.3515V6.64881C16.5723 4.2867 14.6574 2.37183 12.2953 2.37183H6.59266ZM9.44393 11.6386C10.625 11.6386 11.5824 10.6812 11.5824 9.50014C11.5824 8.31908 10.625 7.36164 9.44393 7.36164C8.26287 7.36164 7.30544 8.31908 7.30544 9.50014C7.30544 10.6812 8.26287 11.6386 9.44393 11.6386ZM9.44393 13.0643C11.4124 13.0643 13.0081 11.4686 13.0081 9.50014C13.0081 7.53171 11.4124 5.93598 9.44393 5.93598C7.4755 5.93598 5.87978 7.53171 5.87978 9.50014C5.87978 11.4686 7.4755 13.0643 9.44393 13.0643ZM13.0078 6.93401C13.559 6.93401 14.0058 6.48721 14.0058 5.93605C14.0058 5.38489 13.559 4.93809 13.0078 4.93809C12.4567 4.93809 12.0099 5.38489 12.0099 5.93605C12.0099 6.48721 12.4567 6.93401 13.0078 6.93401Z" fill="#7D8FA9"/>
</svg>
