<svg width="30" height="27" viewBox="0 0 30 27" fill="none" xmlns="http://www.w3.org/2000/svg">
<path d="M27.0968 0H11.6129V4.63918H13.5484V1.85567H27.0968C27.6774 1.85567 28.0645 2.2268 28.0645 2.78351V12.9897C28.0645 13.5464 27.6774 13.9175 27.0968 13.9175H14.5161V20.4124H9.3871L5.80645 23.1031V20.4124H2.90323C2.32258 20.4124 1.93548 20.0412 1.93548 19.4845V9.27835C1.93548 8.72165 2.32258 8.35052 2.90323 8.35052H15.4839V6.49485H2.90323C1.25806 6.49485 0 7.70103 0 9.27835V19.4845C0 21.0619 1.25806 22.268 2.90323 22.268H3.87097V27L9.96774 22.268H16.4516V15.7732H27.0968C28.7419 15.7732 30 14.567 30 12.9897V2.78351C30 1.20619 28.7419 0 27.0968 0Z" fill="#FF9A02"/>
<path d="M4.06464 18.4639H6.38722L6.96786 16.9794H9.96786L10.5485 18.4639H12.8711L9.58076 10.2062H7.25818L4.06464 18.4639ZM8.41947 12.5258L9.38722 15.4021H7.45173L8.41947 12.5258Z" fill="#FF9A02"/>
<path d="M17.4194 12.9897C18.4839 12.9897 19.9355 12.7113 21.2903 12.0619C22.6452 12.7113 24.1936 12.9897 25.1613 12.9897V11.134C25.1613 11.134 24.1936 11.134 23.129 10.7629C24.2903 9.64948 25.1613 7.97938 25.1613 5.56701V4.63917H22.2581V2.7835H20.3226V4.63917H17.4194V6.49484H23.129C22.9355 8.16495 22.1613 9.18557 21.2903 9.83505C20.7097 9.37113 20.129 8.72165 19.742 7.8866H17.7097C18.0968 9.09278 18.6774 10.0206 19.4516 10.7629C18.4839 11.134 17.6129 11.134 17.4194 11.134V12.9897Z" fill="#FF9A02"/>
</svg>
