<svg width="13" height="13" viewBox="0 0 13 13" fill="none" xmlns="http://www.w3.org/2000/svg">
<path d="M7.06463 9.21612C6.59809 9.9043 6.11359 10.4729 5.651 10.895C5.22147 11.287 4.85442 11.5128 4.58041 11.6149C4.50716 11.6422 4.44681 11.6583 4.39798 11.6674C4.35808 11.6753 4.32627 11.6782 4.30186 11.6785C4.2523 11.6794 4.23289 11.671 4.22734 11.6684C4.22481 11.6672 4.21926 11.6646 4.21137 11.6585C4.20195 11.651 4.18865 11.6387 4.17164 11.6178C4.1376 11.5755 4.08886 11.4969 4.04137 11.3635C3.9434 11.088 3.88043 10.6617 3.90466 10.0807C3.93067 9.45497 4.0548 8.71834 4.2821 7.9186L7.06463 9.21612Z" fill="#7D8FA9"/>
<path d="M8.11041 9.70377C7.40852 10.7689 6.64266 11.6173 5.91124 12.158C7.54414 12.3677 9.18893 11.8547 10.4117 10.7769L8.11041 9.70377Z" fill="#7D8FA9"/>
<path d="M2.76985 10.6932C1.55965 9.57705 0.895342 7.98734 0.935031 6.35784L3.23631 7.43094C2.87157 8.65325 2.7139 9.78532 2.76985 10.6932Z" fill="#7D8FA9"/>
<path d="M4.64322 6.82856L7.66752 8.23881C7.84784 7.91735 8.0222 7.57835 8.18789 7.22303C8.35358 6.8677 8.50118 6.51624 8.63154 6.17147L5.60724 4.76122C5.42692 5.08269 5.25256 5.42168 5.08687 5.777C4.92118 6.13233 4.77357 6.48379 4.64322 6.82856Z" fill="#7D8FA9"/>
<path d="M4.57105 4.27803C4.39083 4.60324 4.21748 4.9427 4.0532 5.295C3.88892 5.64729 3.74031 5.99829 3.60703 6.34538L1.09048 5.17189C1.17841 4.80611 1.30404 4.44378 1.46903 4.08997C1.63401 3.73616 1.83081 3.40702 2.0545 3.10455L4.57105 4.27803Z" fill="#7D8FA9"/>
<path d="M6.21013 3.78392L8.99266 5.08143C9.21996 4.28169 9.34409 3.54507 9.37009 2.91937C9.39433 2.33833 9.33136 1.91201 9.23339 1.63652C9.1859 1.50315 9.13716 1.42451 9.10312 1.38221C9.09075 1.36723 9.08025 1.3568 9.07182 1.34918C9.0588 1.33758 9.0507 1.33319 9.04742 1.33166C9.04187 1.32907 9.02246 1.32063 8.9729 1.32149C8.91862 1.3226 8.82704 1.33582 8.69435 1.38516C8.42034 1.4872 8.05329 1.71299 7.62376 2.10504C7.16116 2.52715 6.67666 3.09574 6.21013 3.78392Z" fill="#7D8FA9"/>
<path d="M7.36352 0.842007C6.6321 1.38271 5.86624 2.23117 5.16435 3.29626L2.86307 2.22316C4.08582 1.14533 5.73062 0.632368 7.36352 0.842007Z" fill="#7D8FA9"/>
<path d="M10.5049 2.30686C10.5609 3.21471 10.4032 4.34678 10.0384 5.56909L12.3397 6.6422C12.3794 5.01269 11.7151 3.42298 10.5049 2.30686Z" fill="#7D8FA9"/>
<path d="M9.66773 6.65466L12.1843 7.82814C12.0964 8.19392 11.9707 8.55625 11.8057 8.91006C11.6407 9.26387 11.4439 9.59301 11.2203 9.89548L8.70371 8.722C8.88393 8.3968 9.05728 8.05733 9.22156 7.70504C9.38583 7.35274 9.53445 7.00175 9.66773 6.65466Z" fill="#7D8FA9"/>
</svg>
