<svg width="27" height="25" viewBox="0 0 27 25" fill="none" xmlns="http://www.w3.org/2000/svg">
<path d="M13.2889 25C8.7722 25.0116 4.79749 22.718 2.52581 19.2529C2.4251 19.0988 2.53765 18.8953 2.72424 18.8953H4.80638C4.94854 18.8953 5.08182 18.9564 5.17067 19.0639C5.378 19.311 5.60013 19.5494 5.83411 19.7761C6.79965 20.7209 7.92217 21.4651 9.17204 21.9825C10.4634 22.5174 11.8376 22.7907 13.2563 22.7907C14.675 22.7907 16.0493 22.5203 17.3406 21.9825C18.5905 21.4651 19.713 20.7209 20.6785 19.7761C21.6441 18.8314 22.3993 17.7296 22.9295 16.5058C23.4774 15.2383 23.7529 13.8924 23.7529 12.5C23.7529 11.1075 23.4745 9.76161 22.9295 8.49417C22.4023 7.27034 21.6441 6.16859 20.6785 5.22383C19.713 4.27906 18.5905 3.53488 17.3406 3.01744C16.0483 2.48168 14.6592 2.20684 13.2563 2.2093C11.8376 2.2093 10.4634 2.48255 9.17204 3.01744C7.92462 3.53435 6.79108 4.28363 5.83411 5.22383C5.60013 5.45348 5.38096 5.69185 5.17067 5.93604C5.08182 6.04359 4.94558 6.10464 4.80638 6.10464H2.72424C2.53765 6.10464 2.42214 5.90115 2.52581 5.74708C4.79453 2.29069 8.75146 0 13.2563 0C20.2521 0 25.9327 5.52615 26.0038 12.3721C26.0749 19.3285 20.3853 24.9825 13.2889 25ZM9.53693 9.24417V11.4535H0.236942C0.106624 11.4535 0 11.5581 0 11.686V13.3139C0 13.4418 0.106624 13.5465 0.236942 13.5465H9.53693V15.7558C9.53693 15.9506 9.76795 16.061 9.92196 15.9389L14.1247 12.6831C14.153 12.6614 14.1759 12.6336 14.1917 12.6018C14.2074 12.5701 14.2156 12.5353 14.2156 12.5C14.2156 12.4647 14.2074 12.4298 14.1917 12.3981C14.1759 12.3664 14.153 12.3386 14.1247 12.3168L9.92196 9.06103C9.76795 8.94184 9.53693 9.0494 9.53693 9.24417Z" fill="#FF9A02"/>
</svg>
