<svg width="61" height="62" viewBox="0 0 61 62" fill="none" xmlns="http://www.w3.org/2000/svg">
<path d="M59.8036 50.2213L34.8336 25.2513C37.3911 18.8163 36.0711 11.2263 30.8736 6.00132C24.5486 -0.323678 14.7036 -0.901178 7.69105 4.21382L18.2511 14.8013L14.3461 18.6788L3.81355 8.14632C-1.30145 15.1313 -0.723946 25.0038 5.60105 31.3013C10.7161 36.4163 18.1686 37.7638 24.5486 35.3713L49.6011 60.4238C50.6736 61.4963 52.4061 61.4963 53.4786 60.4238L59.8036 54.0988C60.9036 53.0538 60.9036 51.3213 59.8036 50.2213ZM51.5536 54.6213L25.5386 28.6063C23.8611 29.8438 21.9911 30.5863 20.0386 30.8613C16.2986 31.4113 12.3661 30.2838 9.50605 27.4238C6.89355 24.8388 5.68355 21.3738 5.87605 17.9638L14.3736 26.4613L26.0336 14.8013L17.5361 6.30382C20.9461 6.11132 24.3836 7.32132 26.9961 9.90632C29.9661 12.8763 31.0936 16.9738 30.4061 20.7963C30.0761 22.7488 29.2511 24.5638 27.9861 26.1863L53.9736 52.1738L51.5536 54.6213Z" fill="#6B6A6E"/>
</svg>
