<svg width="86" height="86" viewBox="0 0 86 86" fill="none" xmlns="http://www.w3.org/2000/svg">
<circle cx="43" cy="43" r="42.5" fill="#FF9A02" stroke="#FF9A02"/>
<path fill-rule="evenodd" clip-rule="evenodd" d="M43.0003 44.3058C49.0778 44.3058 54.0003 39.0911 54.0003 32.6529C54.0003 26.2147 49.0778 21 43.0003 21C36.9228 21 32.0003 26.2147 32.0003 32.6529C32.0003 39.0911 36.9228 44.3058 43.0003 44.3058ZM43 47.8021C35.6575 47.8021 21 51.7058 21 59.455V62.3682C21 63.9705 22.2375 65.2814 23.75 65.2814H62.25C63.7625 65.2814 65 63.9705 65 62.3682V59.455C65 51.7058 50.3425 47.8021 43 47.8021Z" fill="white"/>
<path d="M43.0003 44.8058C49.3807 44.8058 54.5003 39.3397 54.5003 32.6529H53.5003C53.5003 38.8425 48.7749 43.8058 43.0003 43.8058V44.8058ZM54.5003 32.6529C54.5003 25.9661 49.3807 20.5 43.0003 20.5V21.5C48.7749 21.5 53.5003 26.4633 53.5003 32.6529H54.5003ZM43.0003 20.5C36.6199 20.5 31.5003 25.9661 31.5003 32.6529H32.5003C32.5003 26.4633 37.2257 21.5 43.0003 21.5V20.5ZM31.5003 32.6529C31.5003 39.3397 36.6199 44.8058 43.0003 44.8058V43.8058C37.2257 43.8058 32.5003 38.8425 32.5003 32.6529H31.5003ZM43 47.3021C39.2623 47.3021 33.6958 48.2913 29.0512 50.2623C26.7279 51.2483 24.6049 52.4926 23.0554 54.0075C21.5016 55.5267 20.5 57.3449 20.5 59.455H21.5C21.5 57.6905 22.3305 56.1148 23.7545 54.7225C25.1828 53.3261 27.183 52.1415 29.4419 51.1829C33.9617 49.2648 39.3952 48.3021 43 48.3021V47.3021ZM20.5 59.455V62.3682H21.5V59.455H20.5ZM20.5 62.3682C20.5 64.2191 21.9346 65.7814 23.75 65.7814V64.7814C22.5404 64.7814 21.5 63.7219 21.5 62.3682H20.5ZM23.75 65.7814H62.25V64.7814H23.75V65.7814ZM62.25 65.7814C64.0654 65.7814 65.5 64.2191 65.5 62.3682H64.5C64.5 63.7219 63.4596 64.7814 62.25 64.7814V65.7814ZM65.5 62.3682V59.455H64.5V62.3682H65.5ZM65.5 59.455C65.5 57.3449 64.4984 55.5267 62.9446 54.0075C61.3951 52.4926 59.2721 51.2483 56.9488 50.2623C52.3042 48.2913 46.7377 47.3021 43 47.3021V48.3021C46.6048 48.3021 52.0383 49.2648 56.5581 51.1829C58.817 52.1415 60.8172 53.3261 62.2455 54.7225C63.6695 56.1148 64.5 57.6905 64.5 59.455H65.5Z" fill="#FF9A02"/>
</svg>
