<svg width="334" height="92" viewBox="0 0 334 92" fill="none" xmlns="http://www.w3.org/2000/svg">
<path d="M78.6568 27.92H87.1528L98.8648 62H90.8008L88.1608 54.368H77.5528L74.9608 62H66.8968L78.6568 27.92ZM86.8648 48.944L82.8808 35.84L78.8008 48.944H86.8648ZM102.221 62V27.92H110.093V55.088H126.605V62H102.221ZM130.299 62V27.92H138.171V55.088H154.683V62H130.299Z" fill="#FF9A02"/>
<path d="M197.593 62H189.913V47.84C189.913 46.208 189.609 45.008 189.001 44.24C188.393 43.472 187.609 43.088 186.649 43.088C185.625 43.088 184.617 43.504 183.625 44.336C182.633 45.168 181.929 46.24 181.513 47.552V62H173.833V47.84C173.833 46.176 173.529 44.976 172.921 44.24C172.313 43.472 171.529 43.088 170.569 43.088C169.577 43.088 168.585 43.504 167.593 44.336C166.601 45.168 165.881 46.24 165.433 47.552V62H157.753V36.8H164.665V41.024C165.593 39.52 166.841 38.368 168.409 37.568C170.009 36.736 171.865 36.32 173.977 36.32C176.057 36.32 177.657 36.816 178.777 37.808C179.897 38.768 180.617 39.904 180.937 41.216C181.897 39.648 183.161 38.448 184.729 37.616C186.329 36.752 188.121 36.32 190.105 36.32C191.705 36.32 193.001 36.624 193.993 37.232C194.985 37.808 195.737 38.576 196.249 39.536C196.761 40.496 197.113 41.536 197.305 42.656C197.497 43.744 197.593 44.816 197.593 45.872V62ZM201.029 54.464C201.029 52.8 201.493 51.344 202.421 50.096C203.349 48.848 204.629 47.872 206.261 47.168C207.893 46.432 209.765 46.064 211.877 46.064C212.901 46.064 213.909 46.16 214.901 46.352C215.893 46.512 216.757 46.752 217.493 47.072V45.968C217.493 44.592 217.077 43.536 216.245 42.8C215.413 42.064 214.149 41.696 212.453 41.696C211.045 41.696 209.717 41.936 208.469 42.416C207.253 42.896 205.957 43.584 204.581 44.48L202.277 39.584C203.941 38.496 205.669 37.68 207.461 37.136C209.285 36.592 211.205 36.32 213.221 36.32C216.997 36.32 219.925 37.232 222.005 39.056C224.117 40.848 225.173 43.456 225.173 46.88V53.456C225.173 54.224 225.285 54.768 225.509 55.088C225.765 55.376 226.197 55.552 226.805 55.616V62C226.165 62.128 225.557 62.224 224.981 62.288C224.437 62.352 223.957 62.384 223.541 62.384C222.101 62.384 220.997 62.096 220.229 61.52C219.493 60.944 219.029 60.16 218.837 59.168L218.693 58.064C217.573 59.504 216.229 60.608 214.661 61.376C213.125 62.112 211.509 62.48 209.813 62.48C208.149 62.48 206.645 62.128 205.301 61.424C203.989 60.72 202.949 59.76 202.181 58.544C201.413 57.328 201.029 55.968 201.029 54.464ZM216.293 55.424C216.645 55.136 216.933 54.816 217.157 54.464C217.381 54.112 217.493 53.776 217.493 53.456V51.2C216.853 50.944 216.133 50.752 215.333 50.624C214.565 50.464 213.845 50.384 213.173 50.384C211.765 50.384 210.597 50.704 209.669 51.344C208.741 51.952 208.277 52.768 208.277 53.792C208.277 54.368 208.437 54.896 208.757 55.376C209.077 55.856 209.509 56.24 210.053 56.528C210.629 56.816 211.301 56.96 212.069 56.96C212.837 56.96 213.605 56.816 214.373 56.528C215.141 56.24 215.781 55.872 216.293 55.424ZM246.722 43.376C244.866 43.376 243.186 43.68 241.682 44.288C240.178 44.864 239.09 45.728 238.418 46.88V62H230.738V36.8H237.794V41.888C238.658 40.192 239.778 38.864 241.154 37.904C242.53 36.944 243.97 36.448 245.474 36.416C245.826 36.416 246.082 36.416 246.242 36.416C246.434 36.416 246.594 36.432 246.722 36.464V43.376ZM266.276 60.656C265.572 60.944 264.788 61.232 263.924 61.52C263.092 61.808 262.212 62.032 261.284 62.192C260.356 62.384 259.444 62.48 258.548 62.48C257.268 62.48 256.084 62.272 254.996 61.856C253.94 61.408 253.092 60.688 252.452 59.696C251.844 58.704 251.54 57.392 251.54 55.76V42.608H248.324V36.8H251.54V28.784H259.22V36.8H264.356V42.608H259.22V53.12C259.22 53.952 259.428 54.56 259.844 54.944C260.26 55.296 260.788 55.472 261.428 55.472C261.972 55.472 262.548 55.376 263.156 55.184C263.796 54.992 264.34 54.784 264.788 54.56L266.276 60.656Z" fill="#666666"/>
</svg>
