<svg width="21" height="25" viewBox="0 0 21 25" fill="none" xmlns="http://www.w3.org/2000/svg">
<path fill-rule="evenodd" clip-rule="evenodd" d="M18.6687 0H2.77482C1.68212 0 0.79802 1.1025 0.79802 2.45001L0.788086 24.5001L4.76155 19.6001H18.6687C19.7614 19.6001 20.6554 18.4976 20.6554 17.1501V2.45001C20.6554 1.1025 19.7614 0 18.6687 0ZM5.75475 8.57514H15.6885C16.2348 8.57514 16.6819 9.12639 16.6819 9.80014C16.6819 10.4739 16.2348 11.0251 15.6885 11.0251H5.75475C5.2084 11.0251 4.76138 10.4739 4.76138 9.80014C4.76138 9.12639 5.2084 8.57514 5.75475 8.57514ZM11.715 14.7002H5.75475C5.2084 14.7002 4.76138 14.1489 4.76138 13.4752C4.76138 12.8014 5.2084 12.2501 5.75475 12.2501H11.715C12.2613 12.2501 12.7084 12.8014 12.7084 13.4752C12.7084 14.1489 12.2613 14.7002 11.715 14.7002ZM15.6885 7.3498H5.75475C5.2084 7.3498 4.76138 6.79855 4.76138 6.1248C4.76138 5.45105 5.2084 4.8998 5.75475 4.8998H15.6885C16.2348 4.8998 16.6819 5.45105 16.6819 6.1248C16.6819 6.79855 16.2348 7.3498 15.6885 7.3498Z" fill="#FF9A02"/>
</svg>
