<svg width="19" height="19" viewBox="0 0 19 19" fill="none" xmlns="http://www.w3.org/2000/svg">
<path fill-rule="evenodd" clip-rule="evenodd" d="M16.8335 0H2.16683C1.1585 0 0.342663 0.825 0.342663 1.83333L0.333496 18.3333L4.00016 14.6667H16.8335C17.8418 14.6667 18.6668 13.8417 18.6668 12.8333V1.83333C18.6668 0.825 17.8418 0 16.8335 0ZM4.91655 6.41678H14.0832C14.5874 6.41678 14.9999 6.82928 14.9999 7.33345C14.9999 7.83762 14.5874 8.25012 14.0832 8.25012H4.91655C4.41238 8.25012 3.99988 7.83762 3.99988 7.33345C3.99988 6.82928 4.41238 6.41678 4.91655 6.41678ZM10.4165 11.0001H4.91655C4.41238 11.0001 3.99988 10.5876 3.99988 10.0834C3.99988 9.57925 4.41238 9.16675 4.91655 9.16675H10.4165C10.9207 9.16675 11.3332 9.57925 11.3332 10.0834C11.3332 10.5876 10.9207 11.0001 10.4165 11.0001ZM14.0832 5.49991H4.91655C4.41238 5.49991 3.99988 5.08741 3.99988 4.58325C3.99988 4.07908 4.41238 3.66658 4.91655 3.66658H14.0832C14.5874 3.66658 14.9999 4.07908 14.9999 4.58325C14.9999 5.08741 14.5874 5.49991 14.0832 5.49991Z" fill="#FF9A02"/>
</svg>
