<svg width="19" height="16" viewBox="0 0 19 16" fill="none" xmlns="http://www.w3.org/2000/svg">
<path d="M18.0434 5.90822H14.0146L10.3307 0.441553C10.1708 0.208219 9.9017 0.0915527 9.63255 0.0915527C9.3634 0.0915527 9.09426 0.208219 8.93445 0.449886L5.2505 5.90822H1.2217C0.759104 5.90822 0.380615 6.28322 0.380615 6.74155C0.380615 6.81655 0.389026 6.89155 0.414259 6.96655L2.55061 14.6916C2.74406 15.3916 3.3917 15.9082 4.1655 15.9082H15.0996C15.8734 15.9082 16.521 15.3916 16.7229 14.6916L18.8593 6.96655L18.8845 6.74155C18.8845 6.28322 18.506 5.90822 18.0434 5.90822ZM9.63255 2.40822L11.9876 5.90822H7.27751L9.63255 2.40822ZM15.0996 14.2416L4.17391 14.2499L2.32352 7.57489H16.95L15.0996 14.2416ZM9.63255 9.24155C8.70736 9.24155 7.95038 9.99155 7.95038 10.9082C7.95038 11.8249 8.70736 12.5749 9.63255 12.5749C10.5577 12.5749 11.3147 11.8249 11.3147 10.9082C11.3147 9.99155 10.5577 9.24155 9.63255 9.24155Z" fill="#8B96A5"/>
</svg>
