<svg width="19" height="12" viewBox="0 0 19 12" fill="none" xmlns="http://www.w3.org/2000/svg">
<path d="M13 6C13 7.933 11.433 9.5 9.5 9.5C7.567 9.5 6 7.933 6 6C6 4.067 7.567 2.5 9.5 2.5C11.433 2.5 13 4.067 13 6Z" stroke="#9F9F9F"/>
<path d="M9.5 0.5C10.6646 0.5 12.8669 1.08164 14.708 2.40591C15.782 3.17834 16.755 4.14969 17.4645 4.93603C17.8178 5.32766 18.1027 5.67003 18.2988 5.91378C18.3232 5.94409 18.3461 5.97286 18.3677 6C18.3461 6.02714 18.3232 6.05591 18.2988 6.08622C18.1027 6.32997 17.8178 6.67234 17.4645 7.06397C16.755 7.85031 15.782 8.82166 14.708 9.59409C12.8669 10.9184 10.6646 11.5 9.5 11.5C8.32708 11.5 6.01685 10.9136 4.30383 9.6029C3.28904 8.82646 2.31122 7.84998 1.58179 7.05977C1.21846 6.66617 0.919675 6.32197 0.7121 6.07663C0.689468 6.04988 0.667927 6.02432 0.647511 6C0.667927 5.97568 0.689468 5.95012 0.7121 5.92337C0.919675 5.67803 1.21846 5.33383 1.58179 4.94023C2.31122 4.15002 3.28904 3.17354 4.30383 2.3971C6.01685 1.08643 8.32708 0.5 9.5 0.5Z" stroke="#9F9F9F"/>
</svg>
