<svg width="74" height="56" viewBox="0 0 74 56" fill="none" xmlns="http://www.w3.org/2000/svg">
<path d="M50.0527 35.6786C49.4418 35.6786 48.8559 35.9213 48.4239 36.3533C47.9919 36.7853 47.7492 37.3712 47.7492 37.9822C47.7492 38.5931 47.9919 39.179 48.4239 39.611C48.8559 40.0431 49.4418 40.2857 50.0527 40.2857H60.8027C61.4137 40.2857 61.9996 40.0431 62.4316 39.611C62.8636 39.179 63.1063 38.5931 63.1063 37.9822C63.1063 37.3712 62.8636 36.7853 62.4316 36.3533C61.9996 35.9213 61.4137 35.6786 60.8027 35.6786H50.0527ZM0.154297 11.875C0.154297 8.82031 1.36778 5.8907 3.5278 3.73068C5.68782 1.57066 8.61743 0.357178 11.6722 0.357178H62.3384C65.3932 0.357178 68.3228 1.57066 70.4828 3.73068C72.6428 5.8907 73.8563 8.82031 73.8563 11.875V44.125C73.8563 47.1798 72.6428 50.1094 70.4828 52.2694C68.3228 54.4294 65.3932 55.6429 62.3384 55.6429H11.6752C8.6205 55.6429 5.69089 54.4294 3.53087 52.2694C1.37085 50.1094 0.157369 47.1798 0.157369 44.125V11.875H0.154297ZM11.6722 4.96432C9.83932 4.96432 8.08155 5.69241 6.78554 6.98842C5.48953 8.28443 4.76144 10.0422 4.76144 11.875V14.1786H69.2492V11.875C69.2492 10.0422 68.5211 8.28443 67.2251 6.98842C65.929 5.69241 64.1713 4.96432 62.3384 4.96432H11.6722ZM4.76144 44.125C4.76144 45.9579 5.48953 47.7156 6.78554 49.0116C8.08155 50.3077 9.83932 51.0357 11.6722 51.0357H62.3384C64.1713 51.0357 65.929 50.3077 67.2251 49.0116C68.5211 47.7156 69.2492 45.9579 69.2492 44.125V18.7857H4.76451V44.125H4.76144Z" fill="#FF9A02"/>
</svg>
