<svg width="59" height="51" viewBox="0 0 59 51" fill="none" xmlns="http://www.w3.org/2000/svg">
<path d="M24.9375 25.1458C31.6595 25.1458 37.1041 19.7013 37.1041 12.9792C37.1041 6.25708 31.6595 0.8125 24.9375 0.8125C18.2154 0.8125 12.7708 6.25708 12.7708 12.9792C12.7708 19.7013 18.2154 25.1458 24.9375 25.1458ZM24.9375 6.89583C28.2833 6.89583 31.0208 9.63333 31.0208 12.9792C31.0208 16.325 28.2833 19.0625 24.9375 19.0625C21.5916 19.0625 18.8541 16.325 18.8541 12.9792C18.8541 9.63333 21.5916 6.89583 24.9375 6.89583ZM6.68746 43.3958C7.29579 41.4796 14.5045 38.2858 21.7741 37.495L27.9791 31.4117C26.7929 31.29 25.9108 31.2292 24.9375 31.2292C16.8162 31.2292 0.604126 35.305 0.604126 43.3958V49.4792H27.9791L21.8958 43.3958H6.68746ZM54.1375 26.6667L38.5337 42.3921L32.2375 36.0654L27.9791 40.3542L38.5337 51L58.3958 30.9554L54.1375 26.6667Z" fill="#6B6A6E"/>
</svg>
