<svg width="20" height="18" viewBox="0 0 20 18" fill="none" xmlns="http://www.w3.org/2000/svg">
<path d="M9.92956 0.666748C4.82891 0.666748 0.698486 4.40008 0.698486 9.00008C0.698486 13.6001 4.82891 17.3334 9.92956 17.3334C15.0395 17.3334 19.1791 13.6001 19.1791 9.00008C19.1791 4.40008 15.0395 0.666748 9.92956 0.666748ZM16.3331 5.66675H13.6072C13.3115 4.62508 12.8865 3.62508 12.332 2.70008C14.0323 3.22508 15.446 4.29175 16.3331 5.66675ZM9.9388 2.36675C10.7057 3.36675 11.3064 4.47508 11.7037 5.66675H8.1739C8.57123 4.47508 9.17185 3.36675 9.9388 2.36675ZM2.7868 10.6667C2.63895 10.1334 2.54655 9.57508 2.54655 9.00008C2.54655 8.42508 2.63895 7.86675 2.7868 7.33342H5.91002C5.8361 7.88342 5.78066 8.43341 5.78066 9.00008C5.78066 9.56675 5.8361 10.1167 5.91002 10.6667H2.7868ZM3.5445 12.3334H6.2704C6.56609 13.3751 6.99114 14.3751 7.54556 15.3001C5.84534 14.7751 4.43157 13.7167 3.5445 12.3334ZM6.2704 5.66675H3.5445C4.43157 4.28341 5.84534 3.22508 7.54556 2.70008C6.99114 3.62508 6.56609 4.62508 6.2704 5.66675ZM9.9388 15.6334C9.17185 14.6334 8.57123 13.5251 8.1739 12.3334H11.7037C11.3064 13.5251 10.7057 14.6334 9.9388 15.6334ZM12.101 10.6667H7.77657C7.6934 10.1167 7.62872 9.56675 7.62872 9.00008C7.62872 8.43341 7.6934 7.87508 7.77657 7.33342H12.101C12.1842 7.87508 12.2489 8.43341 12.2489 9.00008C12.2489 9.56675 12.1842 10.1167 12.101 10.6667ZM12.332 15.3001C12.8865 14.3751 13.3115 13.3751 13.6072 12.3334H16.3331C15.446 13.7084 14.0323 14.7751 12.332 15.3001ZM13.9676 10.6667C14.0415 10.1167 14.0969 9.56675 14.0969 9.00008C14.0969 8.43341 14.0415 7.88342 13.9676 7.33342H17.0908C17.2386 7.86675 17.3311 8.42508 17.3311 9.00008C17.3311 9.57508 17.2386 10.1334 17.0908 10.6667H13.9676Z" fill="#8B96A5"/>
</svg>
