<svg width="76" height="73" viewBox="0 0 76 73" fill="none" xmlns="http://www.w3.org/2000/svg">
<path d="M57.4958 0.750001C57.9178 0.749693 58.3341 0.848803 58.7107 1.0393C59.0873 1.2298 59.4138 1.50633 59.6637 1.8465L59.8608 2.15825L71.5532 23.7586L71.6893 24.0918L71.7323 24.2352L71.804 24.6007L71.8255 24.9375C71.8257 25.1797 71.7932 25.4207 71.7288 25.6542L71.5603 26.1021L71.4242 26.3493C71.3795 26.4207 71.3317 26.49 71.2809 26.5572C71.241 26.6113 71.1992 26.6639 71.1554 26.7148L71.2235 26.6252L66.6583 31.8067C65.1125 30.6813 63.3287 29.9261 61.4446 29.5994L63.1861 27.625H52.5257L38.5077 63.5408C38.3105 64.0452 37.9655 64.4784 37.5179 64.7834C37.0703 65.0884 36.541 65.251 35.9993 65.25H35.9886C35.8772 65.25 35.7659 65.2428 35.6553 65.2285H35.641L35.6231 65.2249C35.4983 65.2063 35.3749 65.1787 35.254 65.1425L35.2182 65.1353C34.9992 65.0725 34.7896 64.9809 34.5947 64.863L34.5624 64.8379C34.3923 64.7334 34.2359 64.6082 34.0966 64.4652L0.807432 26.6754L0.714266 26.5607L0.570932 26.3493C0.367902 26.0215 0.238318 25.6535 0.191099 25.2708L0.166016 24.9375L0.176766 24.701L0.223349 24.3821C0.245675 24.2777 0.274395 24.1748 0.309349 24.0739L0.388182 23.8625L0.488515 23.6582L12.1343 2.15825C12.3351 1.78722 12.6204 1.46868 12.9672 1.22838C13.3139 0.988092 13.7124 0.832802 14.1303 0.775084L14.4958 0.750001H57.4958ZM46.7565 27.625H25.2422L35.9922 55.1701L35.9993 55.1593V55.1737L46.7565 27.625ZM19.4766 27.625H8.79827L27.9727 49.3902L19.4766 27.625ZM25.1454 6.125H16.0939L7.35777 22.25H19.9854L25.1454 6.125ZM41.1988 6.125H30.7892L25.6256 22.25H46.3552L41.1952 6.125H41.1988ZM55.8904 6.125H46.8425L52.0025 22.25H64.623L55.8904 6.125ZM68.2493 41.9583C68.2493 44.3342 67.3055 46.6128 65.6255 48.2928C63.9455 49.9728 61.6669 50.9167 59.291 50.9167C56.9151 50.9167 54.6365 49.9728 52.9565 48.2928C51.2765 46.6128 50.3327 44.3342 50.3327 41.9583C50.3327 39.5824 51.2765 37.3038 52.9565 35.6238C54.6365 33.9438 56.9151 33 59.291 33C61.6669 33 63.9455 33.9438 65.6255 35.6238C67.3055 37.3038 68.2493 39.5824 68.2493 41.9583ZM75.416 61.2188C75.416 66.7944 70.8078 72.4167 59.291 72.4167C47.7742 72.4167 43.166 66.8159 43.166 61.2188V60.8497C43.166 57.338 46.0112 54.5 49.5193 54.5H69.0628C72.5744 54.5 75.416 57.3416 75.416 60.8497V61.2188Z" fill="#002A42"/>
</svg>
