<svg width="86" height="86" viewBox="0 0 86 86" fill="none" xmlns="http://www.w3.org/2000/svg">
<path d="M39.3083 29.6163C38.5576 30.1324 37.9558 30.8368 37.5632 31.6588C37.2302 32.2703 36.6728 32.7286 36.0085 32.9373C35.3442 33.146 34.6248 33.0887 34.002 32.7774C33.3791 32.4662 32.9013 31.9254 32.6692 31.2689C32.4372 30.6124 32.469 29.8915 32.758 29.258C33.4747 27.8175 34.5962 26.2982 36.3306 25.1443C38.0792 23.9726 40.2901 23.2917 42.9991 23.2917C45.357 23.2917 47.9047 23.9905 49.9293 25.5098C51.058 26.3349 51.9734 27.4177 52.5992 28.668C53.2249 29.9183 53.543 31.2999 53.527 32.698C53.527 36.3996 51.6887 38.8613 49.8469 40.6351C49.1661 41.2908 48.4171 41.9179 47.7721 42.4554L47.2454 42.8962C46.6927 43.3482 46.1719 43.8379 45.6866 44.3617V49.2709C45.6866 49.9837 45.4035 50.6673 44.8995 51.1713C44.3955 51.6753 43.7119 51.9584 42.9991 51.9584C42.2864 51.9584 41.6028 51.6753 41.0988 51.1713C40.5948 50.6673 40.3116 49.9837 40.3116 49.2709V43.9927C40.3116 43.1434 40.5517 42.1867 41.1967 41.3553C41.9851 40.352 42.9382 39.5027 43.7696 38.7968L44.4253 38.2486L44.4289 38.245C45.0452 37.7326 45.5899 37.2775 46.1131 36.7687C47.4317 35.4966 48.152 34.3463 48.152 32.698C48.1678 32.1345 48.0439 31.5758 47.7913 31.0719C47.5387 30.5679 47.1653 30.1344 46.7043 29.8098C45.744 29.0896 44.3751 28.6667 42.9991 28.6667C41.229 28.6667 40.0823 29.1003 39.3083 29.6163ZM46.5825 60.9167C46.5825 61.8671 46.205 62.7785 45.5329 63.4506C44.8609 64.1226 43.9495 64.5001 42.9991 64.5001C42.0488 64.5001 41.1374 64.1226 40.4654 63.4506C39.7933 62.7785 39.4158 61.8671 39.4158 60.9167C39.4158 59.9664 39.7933 59.055 40.4654 58.3829C41.1374 57.7109 42.0488 57.3334 42.9991 57.3334C43.9495 57.3334 44.8609 57.7109 45.5329 58.3829C46.205 59.055 46.5825 59.9664 46.5825 60.9167Z" fill="#002A42"/>
<path d="M43.0007 3.58325C64.7694 3.58325 82.4173 21.2312 82.4173 42.9999C82.4173 64.7687 64.7694 82.4166 43.0007 82.4166C21.2319 82.4166 3.58398 64.7687 3.58398 42.9999C3.58398 21.2312 21.2319 3.58325 43.0007 3.58325ZM8.95898 42.9999C8.95898 52.0283 12.5455 60.687 18.9296 67.071C25.3136 73.4551 33.9722 77.0416 43.0007 77.0416C52.0291 77.0416 60.6877 73.4551 67.0717 67.071C73.4558 60.687 77.0423 52.0283 77.0423 42.9999C77.0423 33.9715 73.4558 25.3129 67.0717 18.9288C60.6877 12.5448 52.0291 8.95825 43.0007 8.95825C33.9722 8.95825 25.3136 12.5448 18.9296 18.9288C12.5455 25.3129 8.95898 33.9715 8.95898 42.9999Z" fill="#002A42"/>
</svg>
