<svg width="567" height="588" viewBox="0 0 567 588" fill="none" xmlns="http://www.w3.org/2000/svg">
<g clip-path="url(#clip0_1442_18594)">
<path d="M550.584 425.304C541.312 400.813 523.501 380.374 502.109 370.318C479.828 359.842 454.242 363.652 430.773 360.146C410.388 357.099 395.683 346.533 383.51 327.747C371.848 309.748 361.39 289.814 342.326 281.487C327.259 274.906 310.13 276.733 295.156 283.586C267.565 296.22 246.723 323.079 229.171 349.839C213.146 374.272 200.076 401.023 170.435 401.894C140.774 402.765 112.537 383.122 82.6767 388.326C43.2089 395.206 10.3358 433.358 3.44876 478.775C-3.00736 521.341 13.1907 562.629 41.0197 586.883H519.35C554.416 543.687 572.815 484.02 550.584 425.304Z" fill="#F7F0E3"/>
<path d="M118.182 586.883H119.497C128.635 575.219 135.795 561.07 140.343 545.363C147.707 519.938 147.4 493.254 139.47 470.229C135.465 458.591 129.678 447.748 124.08 437.259C118.405 426.622 112.537 415.623 108.555 403.837C106.908 398.963 105.692 393.732 104.961 388.393C104.631 388.344 104.3 388.304 103.973 388.255C104.708 393.786 105.958 399.205 107.662 404.244C111.675 416.123 117.57 427.167 123.268 437.844C128.843 448.289 134.607 459.096 138.581 470.64C146.426 493.419 146.73 519.831 139.435 545.005C134.83 560.909 127.519 575.192 118.185 586.883H118.182Z" fill="white"/>
<path d="M517.039 538.447C526.896 540.886 536.392 543.071 545.576 544.447C545.734 544.094 545.887 543.741 546.041 543.388C536.78 542.021 527.192 539.818 517.239 537.352C502.08 533.604 485.674 529.543 469.399 529.543C459.322 529.543 449.299 531.098 439.658 535.248C436.006 536.821 432.486 538.813 429.131 541.19C420.424 536.883 411.671 532.179 403.002 527.015C409.293 521.511 415.653 516.123 422.078 510.914C469.78 472.239 513.803 450.313 556.333 444.089C556.249 443.728 556.16 443.366 556.072 443.004C513.426 449.276 469.31 471.261 421.532 509.998C414.968 515.319 408.477 520.827 402.056 526.447C392.306 520.599 382.672 514.171 373.346 507.076C356.432 494.21 336.317 475.844 318.75 451.438C386.831 442.57 456.144 431.397 512.749 387.469C514.9 385.802 517.281 383.832 519.747 381.603C519.474 381.379 519.197 381.156 518.924 380.933C516.562 383.059 514.28 384.936 512.218 386.539C455.629 430.455 386.185 441.543 318.019 450.411C305.603 432.974 294.51 412.495 286.804 388.787C274.796 351.854 275.431 315.614 288.543 289.349C289.112 288.21 289.713 287.084 290.332 285.977C289.786 286.267 289.243 286.571 288.701 286.875C288.362 287.509 288.031 288.148 287.712 288.791C274.453 315.346 273.795 351.934 285.903 389.18C293.572 412.759 304.564 433.157 316.876 450.558C312.928 451.072 308.981 451.577 305.049 452.082C290.855 453.9 276.173 455.781 261.922 457.912C256.72 458.689 251.43 459.596 246.163 460.735C234.878 433.077 222.481 406.098 206.456 382.956C206.225 383.22 205.994 383.479 205.764 383.743C221.65 406.706 233.97 433.488 245.189 460.95C222.227 466.034 199.931 475.594 188.027 497.842C176.907 518.62 176.919 547.342 188.057 583.206C188.442 584.448 188.838 585.668 189.242 586.883H190.274C189.831 585.556 189.392 584.212 188.965 582.827C177.931 547.297 177.892 518.902 188.846 498.427C200.608 476.443 222.785 467.012 245.62 461.991C249.606 471.774 253.454 481.643 257.278 491.449L257.694 492.517C270.979 526.568 284.718 559.426 302.706 586.888H303.906C285.753 559.377 271.937 526.322 258.567 492.057L258.151 490.989C254.358 481.268 250.541 471.484 246.593 461.781C251.757 460.673 256.947 459.784 262.049 459.024C276.292 456.893 290.967 455.012 305.16 453.194C309.304 452.662 313.459 452.131 317.615 451.59C335.352 476.376 355.724 494.996 372.83 508.01C382.053 515.028 391.579 521.395 401.217 527.193C384.854 541.565 368.94 556.683 353.4 571.444C348.018 576.554 342.577 581.719 337.091 586.883H338.614C343.789 582.009 348.926 577.135 354.008 572.31C369.656 557.447 385.685 542.217 402.164 527.765C410.786 532.916 419.489 537.611 428.15 541.914C416.303 550.661 406.646 564.211 400.809 580.66C400.078 582.72 399.44 584.801 398.851 586.888H399.863C400.421 584.944 401.017 583.005 401.698 581.084C407.55 564.591 417.288 551.054 429.227 542.445C453.436 554.387 477.225 563.25 497.67 570.273L498.44 570.537C507.055 573.494 515.865 576.528 523.66 581.393C523.88 581.102 524.099 580.816 524.314 580.526C516.392 575.536 507.455 572.462 498.713 569.465L497.944 569.201C477.71 562.25 454.19 553.493 430.243 541.73C433.363 539.573 436.63 537.754 440.008 536.298C464.963 525.558 492.638 532.407 517.054 538.447H517.039Z" fill="white"/>
<path d="M43.4337 466.1C47.6813 486.293 45.7883 508.099 38.2318 525.929C33.2839 537.607 26.1391 548.181 17.3398 557.259C17.513 557.576 17.6938 557.889 17.8708 558.202C26.8124 549.003 34.0727 538.277 39.0937 526.42C46.7464 508.358 48.6663 486.276 44.3648 465.832C41.0059 449.861 34.2497 436.334 24.9117 426.545C24.704 426.831 24.4962 427.117 24.2923 427.403C33.4725 437.039 40.1171 450.366 43.4298 466.1H43.4337Z" fill="white"/>
<path d="M261.134 210.311C269.513 220.251 273.269 237.004 268.648 252.444C264.173 267.396 254.366 279.78 242.585 287.746C233.104 294.152 220.738 297.686 211.416 290.976C204.448 285.963 200.835 276.126 200.635 266.615C200.435 257.099 203.19 247.829 206.595 239.171C211.397 226.97 217.857 215.136 227.483 207.715C240.749 197.485 253.077 200.755 261.134 210.311Z" fill="#F7F0E3"/>
<path d="M150.058 35.99H80.6719V0H150.058V35.99ZM82.1147 34.3147H148.615V1.6753H82.1147V34.3147Z" fill="#E9DDCA"/>
<path d="M104.917 70.4119H35.5312V34.4175H104.917V70.4075V70.4119ZM36.9741 68.7366H103.474V36.0928H36.9741V68.7322V68.7366Z" fill="#E9DDCA"/>
<path d="M544.848 108.76C540.354 91.4131 532.451 75.4865 521.14 60.9271C509.805 46.3676 494.346 34.3456 474.762 24.8388C455.178 15.332 430.296 10.5786 400.116 10.5786C376.039 10.5786 351.503 14.3492 326.506 21.8903C301.485 29.4582 279.781 40.2203 261.375 54.208L285.337 130.593L272.494 142.673L291.12 149.03C309.504 137.857 326.256 129.744 341.369 124.691C356.459 119.665 372.495 117.15 389.497 117.15C406.499 117.15 419.335 121.904 428.065 131.41C436.795 140.944 441.15 152.39 441.15 165.832C441.15 182.058 436.656 196.457 427.718 209.051C418.734 221.644 408.827 234.372 397.973 247.239C390.44 256.174 383.114 265.403 376.039 274.91C368.967 284.444 362.699 294.634 357.286 305.561C351.849 316.462 347.494 328.207 344.2 340.801C340.884 353.395 339.249 367.516 339.249 383.17C339.249 388.223 339.341 394.232 339.595 401.228C339.637 402.519 339.695 403.774 339.76 405.016H322.154L341.369 420.103H434.794C434.309 416.744 434.078 412.835 434.078 408.358V398.279C434.078 388.773 435.736 379.404 439.03 370.17C442.323 360.936 446.471 352.139 451.427 343.727C456.378 335.342 461.911 327.363 468.059 319.826C474.189 312.258 480.087 305.128 485.754 298.409C493.288 289.474 501.075 279.972 509.093 269.889C517.111 259.81 524.206 249.209 530.335 238.009C536.464 226.809 541.532 214.653 545.541 201.487C549.55 188.348 551.577 173.95 551.577 158.269C551.577 142.588 549.319 126.116 544.848 108.769V108.76Z" fill="#FF9A02"/>
<path d="M369.715 111.821C352.913 111.821 337.065 114.251 322.152 119.116C307.216 124.008 290.664 131.857 272.493 142.673L243.098 50.9067C261.289 37.3702 282.739 26.9521 307.466 19.6299C332.171 12.3345 356.418 8.68457 380.211 8.68457C410.037 8.68457 434.631 13.2861 453.984 22.4846C473.337 31.6831 488.615 43.3164 499.819 57.4068C511 71.4972 518.806 86.91 523.246 103.699C527.663 120.488 529.895 136.454 529.895 151.604C529.895 166.753 527.89 180.714 523.931 193.428C519.968 206.169 514.959 217.937 508.903 228.775C502.847 239.613 495.833 249.87 487.911 259.627C479.989 269.384 472.29 278.582 464.845 287.227C459.243 293.732 453.414 300.629 447.358 307.956C441.279 315.252 435.816 322.971 430.918 331.089C426.024 339.233 421.922 347.743 418.667 356.678C415.412 365.613 413.773 374.682 413.773 383.881V393.638C413.773 397.976 414 401.755 414.477 405.008H322.149C321.191 399.589 320.625 393.508 320.394 386.74C320.144 379.972 320.052 374.155 320.052 369.263C320.052 354.114 321.668 340.448 324.946 328.256C328.201 316.069 332.506 304.699 337.877 294.152C343.229 283.577 349.42 273.717 356.411 264.488C363.402 255.289 370.643 246.35 378.088 237.705C388.811 225.254 398.602 212.933 407.483 200.746C416.316 188.558 420.756 174.624 420.756 158.921C420.756 145.912 416.455 134.837 407.825 125.612C399.195 116.413 386.491 111.812 369.712 111.812L369.715 111.821Z" fill="#FBC343"/>
<path d="M441.183 525.397C441.183 544.956 435.732 560.047 424.824 570.693C413.92 581.361 401.593 586.673 387.83 586.673C374.067 586.673 361.725 581.361 350.821 570.693C339.932 560.047 334.48 544.956 334.48 525.397C334.48 505.839 339.932 490.77 350.821 480.102C367.608 463.652 392.443 459.989 412.096 471.533C429.537 481.777 441.183 502.582 441.183 525.397Z" fill="#FF9A02"/>
<path d="M422.906 525.397C422.906 544.956 417.454 560.047 406.547 570.693C395.643 581.361 383.315 586.673 369.553 586.673C355.79 586.673 343.447 581.361 332.543 570.693C321.655 560.047 316.203 544.956 316.203 525.397C316.203 505.838 321.655 490.77 332.543 480.101C343.447 469.455 355.775 464.121 369.553 464.121C383.331 464.121 395.639 469.455 406.547 480.101C417.45 490.77 422.906 505.861 422.906 525.397Z" fill="#FBC343"/>
<path d="M146.335 248.159C147.359 241.817 143.762 235.712 138.3 234.523C132.839 233.334 127.581 237.511 126.557 243.853C125.533 250.194 129.131 256.299 134.592 257.488C140.054 258.677 145.311 254.5 146.335 248.159Z" fill="#D3DFFF"/>
<path d="M151.13 270.06C151.706 266.493 149.665 263.055 146.572 262.383C143.478 261.71 140.504 264.056 139.929 267.624C139.353 271.191 141.394 274.628 144.487 275.301C147.581 275.974 150.555 273.628 151.13 270.06Z" fill="#D3DFFF"/>
<path d="M139.628 219.689C155.098 201.726 155.098 172.602 139.628 154.639C124.157 136.676 99.0753 136.676 83.6051 154.639C68.1348 172.602 68.1348 201.726 83.6051 219.689C99.0753 237.652 124.157 237.652 139.628 219.689Z" fill="#D3DFFF"/>
<path d="M96.4043 192.959C99.1603 192.959 101.395 190.365 101.395 187.165C101.395 183.965 99.1603 181.371 96.4043 181.371C93.6483 181.371 91.4141 183.965 91.4141 187.165C91.4141 190.365 93.6483 192.959 96.4043 192.959Z" fill="white"/>
<path d="M111.615 192.959C114.371 192.959 116.605 190.365 116.605 187.165C116.605 183.965 114.371 181.371 111.615 181.371C108.859 181.371 106.625 183.965 106.625 187.165C106.625 190.365 108.859 192.959 111.615 192.959Z" fill="white"/>
<path d="M126.826 192.959C129.582 192.959 131.816 190.365 131.816 187.165C131.816 183.965 129.582 181.371 126.826 181.371C124.07 181.371 121.836 183.965 121.836 187.165C121.836 190.365 124.07 192.959 126.826 192.959Z" fill="white"/>
<path d="M83.2334 563.648L86.9347 580.218C87.9004 584.538 91.4978 587.459 95.48 587.142C107.615 586.186 132.832 582.733 147.306 570.345L143.193 546.466C123.294 545.161 104.687 546.448 88.5699 552.743C84.5338 554.32 82.2023 559.015 83.2372 563.643L83.2334 563.648Z" fill="#102048"/>
<path d="M106.428 576.836C106.216 576.836 106.024 576.675 105.966 576.429L100.995 555.767C100.922 555.472 101.072 555.164 101.33 555.079C101.588 554.999 101.853 555.168 101.922 555.468L106.893 576.13C106.966 576.429 106.816 576.733 106.559 576.818C106.516 576.831 106.47 576.84 106.428 576.84V576.836Z" fill="white"/>
<path d="M117.17 574.044C116.958 574.044 116.766 573.883 116.708 573.637L111.737 552.975C111.664 552.68 111.814 552.372 112.072 552.287C112.33 552.202 112.595 552.376 112.665 552.676L117.635 573.338C117.709 573.637 117.559 573.941 117.301 574.026C117.258 574.039 117.212 574.048 117.17 574.048V574.044Z" fill="white"/>
<path d="M129.642 474.084L83.3945 490.02L117.741 544.666L167.051 549.218L235.06 515.824L209.216 470.667L129.642 474.084Z" fill="#FBC343"/>
<path d="M186.659 481.674C288.226 446.765 304.547 550.992 146.08 569.965C140.482 562.652 133.941 549.964 131.344 539.354L215.027 494.451L186.659 481.674Z" fill="#FBC343"/>
<path d="M190.976 556.37C186.224 554.606 181.673 551.117 181.673 551.117L165.352 557.063L169.091 577.68L186.047 581.679C191.215 570.707 191.515 561.7 190.976 556.37Z" fill="#F9B384"/>
<path d="M131.708 540.078L130.984 538.63C148.444 526.849 193.16 498.548 231.262 490.198L231.531 491.847C193.653 500.147 149.106 528.342 131.712 540.078H131.708Z" fill="#FF9A02"/>
<path d="M129.643 474.084C35.1063 453.212 10.6207 558.707 169.092 577.68C174.69 570.367 179.076 561.727 181.673 551.117C157.33 532.206 130.113 514.229 100.287 497.105L129.647 474.084H129.643Z" fill="#FBC343"/>
<path d="M181.287 551.823C176.789 548.499 172.103 544.987 167.143 541.266C142.238 522.596 114.013 501.434 90.0312 489.367L90.6045 487.831C114.694 499.951 142.973 521.153 167.924 539.859C172.884 543.576 177.566 547.087 182.06 550.411L181.287 551.823Z" fill="#FF9A02"/>
<path d="M60.2854 526.389L59.0234 525.581C62.5708 518.12 68.2575 513.09 75.9179 510.628L76.3026 512.241C68.9269 514.613 63.6866 519.241 60.2854 526.389Z" fill="#FF9A02"/>
<path d="M257.595 520.037C254.194 512.889 248.954 508.26 241.578 505.888L241.963 504.275C249.623 506.737 255.31 511.772 258.857 519.228L257.595 520.037Z" fill="#FF9A02"/>
<path d="M160.238 576.751L159.184 575.607C166.748 566.203 171.392 556.277 173.385 545.255L174.797 545.599C172.75 556.924 167.987 567.115 160.242 576.751H160.238Z" fill="#FF9A02"/>
<path d="M238.123 550.232C226.011 541.543 202.53 556.558 196.635 557.318C194.915 557.541 192.93 557.103 190.976 556.375C191.514 561.705 191.214 570.711 186.047 581.683L188.929 582.362C188.929 582.362 208.84 590.837 229.962 585.905C249.458 581.353 247.646 557.068 238.123 550.237V550.232Z" fill="#102048"/>
<path d="M221.612 578.65C221.566 578.65 221.516 578.641 221.466 578.623C221.212 578.529 221.073 578.216 221.15 577.922C222.589 572.632 223.217 562.223 219.05 555.231C218.9 554.977 218.953 554.628 219.173 554.454C219.392 554.28 219.692 554.342 219.842 554.597C224.205 561.919 223.567 572.757 222.07 578.257C222.005 578.493 221.816 578.645 221.612 578.645V578.65Z" fill="white"/>
<path d="M212.112 580.745C212.066 580.745 212.016 580.736 211.966 580.718C211.712 580.624 211.573 580.312 211.65 580.017C213.089 574.727 213.717 564.318 209.55 557.327C209.4 557.072 209.453 556.723 209.673 556.549C209.892 556.375 210.192 556.437 210.342 556.692C214.705 564.014 214.067 574.852 212.57 580.352C212.505 580.589 212.316 580.741 212.112 580.741V580.745Z" fill="white"/>
<path d="M112.918 338.067C112.918 338.067 136.727 314.559 135.846 310.092C135.215 306.898 128.47 311.58 128.47 311.58C128.47 311.58 137.927 298.548 137.446 296.966C136.588 294.139 130.044 299.41 130.044 299.41C130.044 299.41 134.465 292.021 132.352 290.815C130.24 289.609 125.631 294.165 125.631 294.165C125.631 294.165 128.324 290.064 127.058 288.988C125.792 287.911 120.336 292.338 120.336 292.338C120.336 292.338 122.295 287.165 118.136 289.126C113.977 291.087 84.8047 322.172 84.8047 322.172L112.918 338.067Z" fill="#F9B384"/>
<path d="M122.661 310.181C122.546 310.181 122.43 310.132 122.338 310.034C118.252 305.7 116.447 304.646 111.942 303.033C111.688 302.944 111.545 302.631 111.622 302.336C111.699 302.042 111.969 301.876 112.223 301.966C116.894 303.632 118.76 304.722 122.988 309.207C123.184 309.417 123.2 309.77 123.019 309.998C122.923 310.119 122.796 310.181 122.665 310.181H122.661Z" fill="#E28B6D"/>
<path d="M115.49 322.936C115.467 322.936 115.444 322.936 115.425 322.931C115.163 322.887 114.978 322.605 115.017 322.301C115.486 318.415 116.54 315.984 118.237 314.876C119.692 313.929 121.581 314.023 123.858 315.167C124.101 315.287 124.216 315.618 124.108 315.899C124.005 316.181 123.72 316.315 123.477 316.19C121.492 315.194 119.888 315.077 118.71 315.85C117.31 316.766 116.387 318.986 115.971 322.458C115.936 322.735 115.732 322.94 115.494 322.94L115.49 322.936Z" fill="#E28B6D"/>
<path d="M114.367 299.432C114.24 299.432 114.113 299.374 114.017 299.258C113.836 299.035 113.844 298.682 114.036 298.468L120.012 291.932C120.204 291.717 120.508 291.731 120.693 291.954C120.873 292.177 120.866 292.53 120.673 292.745L114.698 299.281C114.606 299.383 114.487 299.432 114.367 299.432Z" fill="#E28B6D"/>
<path d="M119.897 301.666C119.777 301.666 119.658 301.613 119.562 301.51C119.369 301.296 119.366 300.943 119.546 300.719L125.287 293.777C125.472 293.553 125.776 293.544 125.968 293.759C126.16 293.973 126.164 294.326 125.983 294.55L120.243 301.492C120.147 301.608 120.023 301.662 119.897 301.662V301.666Z" fill="#E28B6D"/>
<path d="M125.545 305.575C125.426 305.575 125.311 305.526 125.218 305.423C125.026 305.213 125.014 304.86 125.195 304.633L129.697 299.026C129.878 298.802 130.181 298.789 130.378 298.999C130.57 299.209 130.582 299.562 130.401 299.79L125.899 305.396C125.803 305.513 125.676 305.575 125.545 305.575Z" fill="#E28B6D"/>
<path d="M202.856 495.3L115.806 499.209L106.188 407.067C106.188 407.067 135.329 374.973 146.54 363.152L165.47 362.026C224.195 393.022 214.58 431.732 202.856 495.3Z" fill="#3A6BEA"/>
<path d="M165.473 362.026C165.473 362.026 232.658 368.696 253.838 422.145C274.565 474.446 189.393 493.066 189.393 493.066L165.473 362.026Z" fill="#3A6BEA"/>
<path d="M88.6714 373.481L116.435 334.252L90.4721 315.984C79.6413 324.727 58.6993 344.532 40.9507 366.958C37.034 371.908 33.9714 377.689 32.4324 384.055C31.1165 389.488 30.878 394.853 31.6167 400.107C33.5443 413.804 42.8206 424.37 55.2058 426.054C65.7826 427.493 106.185 423.82 138.889 412.652L148.508 369.545C143.564 366.288 106.832 365.721 88.6714 373.481Z" fill="#3A6BEA"/>
<g opacity="0.8">
<path d="M221.539 383.238C221.685 383.197 221.828 383.162 221.974 383.121C221.67 382.911 221.366 382.71 221.062 382.505C216.137 383.823 211.058 385.168 206.049 385.869C203.04 386.289 192.983 387.062 190.047 379.284C188.585 375.415 189.693 371.108 191.344 368.088C191.101 368.008 190.863 367.928 190.624 367.847C188.931 371.046 187.842 375.536 189.385 379.619C192.521 387.928 203.002 387.142 206.137 386.7C211.289 385.981 216.503 384.587 221.539 383.238Z" fill="white"/>
<path d="M252.894 443.517C249.685 442.079 246.368 440.587 242.882 440.971C236.769 441.641 231.536 448.664 231.217 456.62C231.001 462.048 232.786 467.736 236.188 472.735C236.392 472.587 236.596 472.435 236.799 472.288C233.471 467.427 231.725 461.91 231.936 456.661C232.236 449.102 237.176 442.436 242.948 441.806C246.26 441.449 249.358 442.834 252.632 444.299C253.802 444.822 254.99 445.354 256.199 445.8C256.26 445.532 256.322 445.26 256.376 444.987C255.198 444.549 254.036 444.031 252.89 443.517H252.894Z" fill="white"/>
<path d="M83.3166 416.878C79.1228 412.848 72.6051 411.772 65.4372 413.925C59.0503 415.842 53.5715 419.643 49.8086 424.669C50.0548 424.763 50.2972 424.866 50.5473 424.951C54.2101 420.179 59.4851 416.574 65.618 414.734C72.5551 412.647 78.8419 413.666 82.8549 417.521C84.7632 419.353 86.1137 421.734 87.0948 424.299C87.3411 424.267 87.5912 424.232 87.8412 424.2C86.814 421.439 85.3827 418.862 83.3166 416.874V416.878Z" fill="white"/>
<path d="M45.3945 361.477C53.255 359.207 60.9231 356.022 67.9987 351.291C70.6727 349.504 73.6891 347.225 75.813 343.879C78.0714 340.319 78.8217 336.079 77.8214 332.541C77.4289 331.152 76.7325 329.932 75.863 328.958C75.6783 329.132 75.4936 329.311 75.3089 329.485C76.1208 330.383 76.771 331.513 77.1365 332.804C78.0637 336.088 77.3558 340.042 75.2358 343.383C73.1928 346.605 70.2495 348.825 67.6408 350.567C60.9693 355.03 53.7513 358.117 46.3372 360.346C46.0217 360.722 45.71 361.101 45.3984 361.477H45.3945Z" fill="white"/>
</g>
<path d="M171.617 341.543L171.606 342.973L171.41 365.189L171.387 367.597C171.352 371.364 170.021 374.777 167.874 377.256C165.738 379.718 162.799 381.263 159.544 381.29C152.984 381.33 147.617 375.214 147.555 367.584L147.324 340.127L171.617 341.543Z" fill="#F9B384"/>
<path d="M171.608 342.973L171.411 365.189C160.777 360.163 156.398 346.797 156.398 346.797L171.604 342.973H171.608Z" fill="#102048"/>
<path d="M175.813 304.204C179.622 309.515 190.753 339.604 179.472 349.87C166.779 361.423 147.46 342.436 147.46 342.436L144.867 307.389L161.635 302.256L175.813 304.204Z" fill="#F9B384"/>
<path d="M136.325 302.274C136.325 302.274 99.1309 324.799 129.457 389.725C133.351 398.065 141.981 401.702 149.36 397.637C157.278 393.272 160.276 382.041 155.974 373.173C151.015 362.942 146.224 349.763 148.271 339.962L136.325 302.278V302.274Z" fill="#102048"/>
<path d="M146.949 321.194C150.878 316.632 150.878 309.235 146.949 304.672C143.019 300.11 136.649 300.11 132.72 304.672C128.791 309.235 128.791 316.632 132.72 321.194C136.649 325.756 143.019 325.756 146.949 321.194Z" fill="#FBC343"/>
<path d="M152.215 326.97C151.126 319.684 150.465 314.685 156.809 310.927C156.809 310.927 179.167 315.65 183.434 305.852C187.701 296.06 181.199 280.602 167.582 291.338C132.724 283.43 128.049 321.31 138.618 333.935L149.049 332.076C151.15 331.701 152.577 329.396 152.215 326.966V326.97Z" fill="#102048"/>
<path d="M169.528 328.717C170.348 328.717 171.013 327.945 171.013 326.993C171.013 326.04 170.348 325.268 169.528 325.268C168.708 325.268 168.043 326.04 168.043 326.993C168.043 327.945 168.708 328.717 169.528 328.717Z" fill="#102048"/>
<path d="M179.587 322.963C180.407 322.963 181.072 322.19 181.072 321.238C181.072 320.286 180.407 319.514 179.587 319.514C178.766 319.514 178.102 320.286 178.102 321.238C178.102 322.19 178.766 322.963 179.587 322.963Z" fill="#102048"/>
<path d="M178.556 332.304C178.452 332.304 178.348 332.259 178.267 332.17C178.098 331.982 178.09 331.674 178.252 331.478C178.848 330.749 179.503 329.726 179.225 328.98C178.941 328.207 177.737 327.877 177.182 327.877C175.997 327.877 175.428 325.429 175.324 324.937C175.27 324.674 175.409 324.41 175.636 324.347C175.863 324.28 176.09 324.446 176.144 324.709C176.359 325.746 176.852 326.903 177.182 326.903C177.752 326.903 179.487 327.216 179.999 328.6C180.364 329.588 179.983 330.785 178.86 332.157C178.779 332.259 178.668 332.308 178.556 332.308V332.304Z" fill="#102048"/>
<path d="M178.633 338.849C178.552 338.849 178.471 338.822 178.398 338.764C175.601 336.571 172.773 338.411 172.746 338.429C172.546 338.563 172.288 338.483 172.173 338.251C172.058 338.018 172.127 337.719 172.327 337.585C172.462 337.496 175.64 335.427 178.872 337.956C179.064 338.108 179.114 338.411 178.983 338.635C178.902 338.773 178.768 338.849 178.633 338.849Z" fill="#102048"/>
<path d="M168.876 319.514C169.723 321.363 168.249 321.734 166.522 322.797C164.794 323.861 163.028 324.254 162.624 323.369C162.22 322.489 163.294 320.912 165.021 319.844C166.749 318.777 168.222 318.08 168.876 319.509V319.514Z" fill="#102048"/>
<path d="M175.171 316.181C175.545 317.83 176.603 317.11 178.142 316.641C179.681 316.172 180.927 315.274 180.75 314.488C180.573 313.702 179.181 313.442 177.638 313.912C176.095 314.381 174.879 314.908 175.168 316.186L175.171 316.181Z" fill="#102048"/>
<path opacity="0.4" d="M165.644 338.755C167.423 336.849 167.535 333.63 165.894 331.565C164.253 329.499 161.481 329.369 159.702 331.274C157.923 333.18 157.811 336.399 159.452 338.465C161.093 340.53 163.865 340.66 165.644 338.755Z" fill="#EB5D60"/>
<path d="M151.357 339.865C153.36 336.851 152.593 332.266 149.645 329.623C146.696 326.981 142.681 327.281 140.678 330.295C138.675 333.309 139.441 337.895 142.39 340.537C145.339 343.18 149.354 342.879 151.357 339.865Z" fill="#F9B384"/>
<path d="M148.63 337.616C148.399 337.616 148.21 337.397 148.21 337.129C148.21 335.686 147.606 334.355 146.59 333.56C145.725 332.881 144.69 332.724 143.824 333.131C143.609 333.229 143.362 333.113 143.274 332.863C143.185 332.612 143.289 332.327 143.505 332.224C144.628 331.692 145.955 331.884 147.056 332.747C148.302 333.72 149.049 335.356 149.049 337.125C149.049 337.393 148.86 337.612 148.63 337.612V337.616Z" fill="#102048"/>
<path d="M88.3211 373.088L73.1367 392.162L73.843 392.92L89.0274 373.847L88.3211 373.088Z" fill="#102048"/>
<path d="M195.304 455.07L195.023 454.003C206.077 450.089 216.808 445.412 226.531 431.294L227.281 431.991C217.385 446.359 206.508 451.108 195.304 455.075V455.07Z" fill="#102048"/>
<path d="M202.022 411.821H107.981C104.599 411.821 101.855 415.265 101.855 419.514V497.476C101.855 501.724 104.599 505.169 107.981 505.169H202.022C205.404 505.169 208.147 501.724 208.147 497.476V419.514C208.147 415.265 205.404 411.821 202.022 411.821Z" fill="#D3DFFF"/>
<path d="M159.969 453.565C160.327 453.565 160.616 453.927 160.616 454.378V462.607C160.616 463.054 160.327 463.42 159.969 463.42H150.039C149.681 463.42 149.393 463.058 149.393 462.607V454.378C149.393 453.931 149.681 453.565 150.039 453.565H159.969ZM159.969 451.331H150.039C148.623 451.331 147.469 452.698 147.469 454.378V462.607C147.469 464.287 148.623 465.654 150.039 465.654H159.969C161.385 465.654 162.539 464.287 162.539 462.607V454.378C162.539 452.698 161.385 451.331 159.969 451.331Z" fill="#1F3C88"/>
<path d="M567 585.766H0V588H567V585.766Z" fill="#102048"/>
</g>
<defs>
<clipPath id="clip0_1442_18594">
<rect width="567" height="588" fill="white"/>
</clipPath>
</defs>
</svg>
