<svg width="19" height="19" viewBox="0 0 19 19" fill="none" xmlns="http://www.w3.org/2000/svg">
<path d="M13.4995 12H12.7095L12.4295 11.73C13.0544 11.0039 13.5112 10.1487 13.767 9.22559C14.0229 8.30243 14.0715 7.33413 13.9095 6.38998C13.4395 3.60998 11.1195 1.38997 8.31949 1.04997C7.3351 0.925441 6.33527 1.02775 5.39651 1.34906C4.45775 1.67038 3.60493 2.20219 2.90332 2.90381C2.20171 3.60542 1.66989 4.45824 1.34858 5.397C1.02726 6.33576 0.924952 7.33559 1.04949 8.31997C1.38949 11.12 3.60949 13.44 6.38949 13.91C7.33364 14.072 8.30194 14.0234 9.2251 13.7675C10.1483 13.5117 11.0035 13.0549 11.7295 12.43L11.9995 12.71V13.5L16.2495 17.75C16.6595 18.16 17.3295 18.16 17.7395 17.75C18.1495 17.34 18.1495 16.67 17.7395 16.26L13.4995 12ZM7.49949 12C5.00949 12 2.99949 9.98997 2.99949 7.49997C2.99949 5.00997 5.00949 2.99997 7.49949 2.99997C9.98949 2.99997 11.9995 5.00997 11.9995 7.49997C11.9995 9.98997 9.98949 12 7.49949 12Z" fill="#002A42"/>
</svg>
