<svg width="86" height="86" viewBox="0 0 86 86" fill="none" xmlns="http://www.w3.org/2000/svg">
<circle cx="43" cy="43" r="43" fill="#DEE2E7"/>
<path fill-rule="evenodd" clip-rule="evenodd" d="M53.7513 34.5066H51.9596V30.9467C51.9596 26.034 47.9463 22.0469 43.0013 22.0469C38.0563 22.0469 34.043 26.034 34.043 30.9467V34.5066H32.2513C30.2805 34.5066 28.668 36.1086 28.668 38.0666V55.8663C28.668 57.8242 30.2805 59.4262 32.2513 59.4262H53.7513C55.7221 59.4262 57.3346 57.8242 57.3346 55.8663V38.0666C57.3346 36.1086 55.7221 34.5066 53.7513 34.5066ZM43.0013 50.526C41.0305 50.526 39.418 48.9241 39.418 46.9661C39.418 45.0081 41.0305 43.4062 43.0013 43.4062C44.9721 43.4062 46.5846 45.0081 46.5846 46.9661C46.5846 48.9241 44.9721 50.526 43.0013 50.526ZM37.627 34.5065V30.9465C37.627 27.9918 40.0278 25.6066 43.002 25.6066C45.9761 25.6066 48.377 27.9918 48.377 30.9465V34.5065H37.627Z" fill="#8B96A5"/>
</svg>
