<svg width="14" height="15" viewBox="0 0 14 15" fill="none" xmlns="http://www.w3.org/2000/svg">
<path fill-rule="evenodd" clip-rule="evenodd" d="M5.85811 2.25731C5.72751 2.06131 5.48898 1.96313 5.26312 2.02989C4.38766 2.28867 3.59992 2.75164 2.95524 3.36413C2.7844 3.52643 2.75004 3.78218 2.85451 3.9934L3.21606 4.72441L2.64579 5.71235L1.83023 5.76508C1.59502 5.78028 1.39069 5.93804 1.33581 6.16727C1.23343 6.59489 1.1792 7.04083 1.1792 7.49999C1.1792 7.95894 1.23334 8.40533 1.33556 8.83255C1.39044 9.06188 1.59498 9.21957 1.83031 9.23456L2.64579 9.28653L3.21606 10.2745L2.8542 11.0066C2.74983 11.2178 2.78422 11.4735 2.955 11.6358C3.59973 12.2483 4.38756 12.7113 5.26313 12.9701C5.48898 13.0369 5.72751 12.9387 5.8581 12.7427L6.31158 12.0621H7.45211L7.90559 12.7427C8.03618 12.9387 8.27471 13.0369 8.50057 12.9701C9.37613 12.7113 10.164 12.2483 10.8087 11.6358C10.9795 11.4735 11.0139 11.2178 10.9095 11.0066L10.5476 10.2745L11.1179 9.28653L11.9334 9.23456C12.1687 9.21957 12.3733 9.06188 12.4281 8.83255C12.5304 8.40533 12.5845 7.95894 12.5845 7.49999C12.5845 7.04083 12.5303 6.59489 12.4279 6.16727C12.373 5.93804 12.1687 5.78028 11.9335 5.76508L11.1179 5.71235L10.5476 4.72441L10.9092 3.9934C11.0137 3.78218 10.9793 3.52643 10.8085 3.36413C10.1638 2.75164 9.37603 2.28867 8.50057 2.02989C8.27471 1.96313 8.03618 2.06131 7.90559 2.25731L7.45211 2.93788H6.31158L5.85811 2.25731ZM6.88185 9.78105C8.14164 9.78105 9.16291 8.75979 9.16291 7.49999C9.16291 6.2402 8.14164 5.21893 6.88185 5.21893C5.62205 5.21893 4.60079 6.2402 4.60079 7.49999C4.60079 8.75979 5.62205 9.78105 6.88185 9.78105Z" fill="#7D8FA9"/>
</svg>
