<svg width="27" height="27" viewBox="0 0 27 27" fill="none" xmlns="http://www.w3.org/2000/svg">
<path d="M24.75 10.6762H19.3612L14.4338 3.29623C14.22 2.98123 13.86 2.82373 13.5 2.82373C13.14 2.82373 12.78 2.98123 12.5662 3.30748L7.63875 10.6762H2.25C1.63125 10.6762 1.125 11.1825 1.125 11.8012C1.125 11.9025 1.13625 12.0037 1.17 12.105L4.0275 22.5337C4.28625 23.4787 5.1525 24.1762 6.1875 24.1762H20.8125C21.8475 24.1762 22.7138 23.4787 22.9837 22.5337L25.8412 12.105L25.875 11.8012C25.875 11.1825 25.3687 10.6762 24.75 10.6762ZM13.5 5.95123L16.65 10.6762H10.35L13.5 5.95123ZM20.8125 21.9262L6.19875 21.9375L3.72375 12.9262H23.2875L20.8125 21.9262ZM13.5 15.1762C12.2625 15.1762 11.25 16.1887 11.25 17.4262C11.25 18.6637 12.2625 19.6762 13.5 19.6762C14.7375 19.6762 15.75 18.6637 15.75 17.4262C15.75 16.1887 14.7375 15.1762 13.5 15.1762Z" fill="#FF9C00"/>
</svg>
