<svg width="15" height="15" viewBox="0 0 15 15" fill="none" xmlns="http://www.w3.org/2000/svg">
<path d="M11.8659 1.79736C12.1113 1.79736 12.3292 1.95441 12.4069 2.18726L13.3881 5.13117C13.4075 5.1893 13.4186 5.25035 13.4137 5.31147C13.3666 5.89809 12.8756 6.35948 12.2769 6.35948C11.647 6.35948 11.1364 5.84887 11.1364 5.21895C11.1364 5.84887 10.6257 6.35948 9.99583 6.35948C9.36594 6.35948 8.8553 5.84887 8.8553 5.21895C8.8553 5.84887 8.34466 6.35948 7.71477 6.35948C7.08488 6.35948 6.57424 5.84887 6.57424 5.21895C6.57424 5.84887 6.0636 6.35948 5.43371 6.35948C4.80382 6.35948 4.29318 5.84887 4.29318 5.21895C4.29318 5.84887 3.78254 6.35948 3.15265 6.35948C2.55392 6.35948 2.0629 5.89809 2.01581 5.31147C2.0124 5.26907 2.01668 5.22675 2.02611 5.1854C2.03029 5.16709 2.03544 5.14899 2.04139 5.13117L3.02269 2.18726C3.1003 1.95441 3.31823 1.79736 3.56368 1.79736H11.8659Z" fill="#7D8FA9"/>
<path d="M4.2935 8.6404C4.2935 8.95535 4.54881 9.21067 4.86376 9.21067H10.5664C10.8814 9.21067 11.1367 8.95535 11.1367 8.6404V7.19483C11.4721 7.38884 11.8615 7.4998 12.2769 7.4998C12.4739 7.4998 12.6651 7.47488 12.8475 7.42796V12.6322C12.8475 12.9471 12.5922 13.2024 12.2772 13.2024H3.15297C2.83802 13.2024 2.5827 12.9471 2.5827 12.6322V7.4281C2.76484 7.47495 2.95582 7.4998 3.15265 7.4998C3.56813 7.4998 3.95796 7.38891 4.2935 7.19483V8.6404Z" fill="#7D8FA9"/>
</svg>
