<svg width="15" height="15" viewBox="0 0 15 15" fill="none" xmlns="http://www.w3.org/2000/svg">
<path d="M7.49786 1.18463C7.61126 0.908509 7.99749 0.90851 8.11088 1.18463L9.83386 5.37998C9.88166 5.49639 9.98975 5.57592 10.1138 5.586L14.586 5.9491C14.8804 5.973 14.9997 6.34501 14.7755 6.53956L11.3681 9.49554C11.2736 9.57755 11.2323 9.70624 11.2612 9.82887L12.3022 14.2486C12.3707 14.5395 12.0582 14.7694 11.8062 14.6136L7.97741 12.2451C7.87118 12.1794 7.73757 12.1794 7.63133 12.2451L3.80251 14.6136C3.55051 14.7694 3.23805 14.5395 3.30656 14.2486L4.34756 9.82887C4.37644 9.70624 4.33516 9.57755 4.24062 9.49554L0.83327 6.53956C0.609014 6.34501 0.728365 5.973 1.02271 5.9491L5.49491 5.586C5.61899 5.57592 5.72708 5.49639 5.77489 5.37998L7.49786 1.18463Z" fill="#FFC045"/>
</svg>
