<svg width="18" height="19" viewBox="0 0 18 19" fill="none" xmlns="http://www.w3.org/2000/svg">
<path d="M14.5446 6.60381C14.5533 6.72897 14.5533 6.85413 14.5533 6.98044C14.5533 10.8292 11.6111 15.268 6.23102 15.268V15.2657C4.64174 15.268 3.08547 14.8147 1.74756 13.9599C1.97865 13.9876 2.21091 14.0014 2.44374 14.002C3.7608 14.0032 5.04022 13.5631 6.07638 12.7527C4.82476 12.7291 3.72721 11.9164 3.34379 10.73C3.78223 10.8142 4.234 10.7969 4.66433 10.6798C3.29977 10.4053 2.31805 9.21138 2.31805 7.82483V7.78792C2.72464 8.01343 3.17988 8.13859 3.64555 8.15243C2.36034 7.29709 1.96417 5.59447 2.74028 4.26329C4.22531 6.08299 6.41636 7.18923 8.76843 7.30632C8.5327 6.29466 8.85473 5.23457 9.61462 4.52341C10.7927 3.42063 12.6455 3.47715 13.7529 4.64972C14.4079 4.5211 15.0358 4.28174 15.6103 3.94261C15.392 4.61685 14.935 5.18958 14.3245 5.55352C14.9043 5.48546 15.4707 5.33089 16.0042 5.09499C15.6115 5.68098 15.1169 6.19142 14.5446 6.60381Z" fill="#7D8FA9"/>
</svg>
