<svg width="15" height="12" viewBox="0 0 15 12" fill="none" xmlns="http://www.w3.org/2000/svg">
<path fill-rule="evenodd" clip-rule="evenodd" d="M0.49707 1.01019C0.49707 0.616509 0.816216 0.297363 1.2099 0.297363H14.0409C14.4345 0.297363 14.7537 0.616509 14.7537 1.01019C14.7537 1.40388 14.4345 1.72303 14.0409 1.72303H1.2099C0.816215 1.72303 0.49707 1.40388 0.49707 1.01019ZM0.49707 6.00001C0.49707 5.60633 0.816217 5.28718 1.2099 5.28718H14.0409C14.4345 5.28718 14.7537 5.60633 14.7537 6.00001C14.7537 6.3937 14.4345 6.71284 14.0409 6.71284H1.2099C0.816217 6.71284 0.49707 6.3937 0.49707 6.00001ZM1.2099 10.277C0.816217 10.277 0.49707 10.5961 0.49707 10.9898C0.49707 11.3835 0.816217 11.7027 1.2099 11.7027H14.0409C14.4345 11.7027 14.7537 11.3835 14.7537 10.9898C14.7537 10.5961 14.4345 10.277 14.0409 10.277H1.2099Z" fill="#586A84"/>
</svg>
