<svg width="26" height="28" viewBox="0 0 26 28" fill="none" xmlns="http://www.w3.org/2000/svg">
<path d="M15.82 24.8825L13 27.7025L10.18 24.8825C4.6375 23.6025 0.5 18.6325 0.5 12.7025C0.5 5.80245 6.1 0.202454 13 0.202454C19.9 0.202454 25.5 5.80245 25.5 12.7025C25.5 18.6325 21.3625 23.6025 15.82 24.8825ZM5.52875 16.9725C7.36375 19.71 10.1187 21.4525 13.2 21.4525C16.28 21.4525 19.0362 19.7112 20.87 16.9725C18.7897 15.0282 16.0474 13.9485 13.2 13.9525C10.3521 13.9481 7.60939 15.0279 5.52875 16.9725ZM13 11.4525C13.9946 11.4525 14.9484 11.0574 15.6517 10.3541C16.3549 9.65084 16.75 8.69702 16.75 7.70245C16.75 6.70789 16.3549 5.75406 15.6517 5.0508C14.9484 4.34754 13.9946 3.95245 13 3.95245C12.0054 3.95245 11.0516 4.34754 10.3483 5.0508C9.64509 5.75406 9.25 6.70789 9.25 7.70245C9.25 8.69702 9.64509 9.65084 10.3483 10.3541C11.0516 11.0574 12.0054 11.4525 13 11.4525Z" fill="white"/>
</svg>
